<?xml version="1.0" encoding="UTF-8"?>
<!DOCTYPE svg PUBLIC "-//W3C//DTD SVG 1.1//EN" "http://www.w3.org/Graphics/SVG/1.1/DTD/svg11.dtd">
<!-- Creator: CorelDRAW 2020 (64-Bit) -->
<svg xmlns="http://www.w3.org/2000/svg" xml:space="preserve" width="104.594mm" height="14.134mm" version="1.1" style="shape-rendering:geometricPrecision; text-rendering:geometricPrecision; image-rendering:optimizeQuality; fill-rule:evenodd; clip-rule:evenodd"
viewBox="0 0 10459.38 1413.4"
 xmlns:xlink="http://www.w3.org/1999/xlink"
 xmlns:xodm="http://www.corel.com/coreldraw/odm/2003">
 <defs>
  <style type="text/css">
   <![CDATA[
    .fil0 {fill:#D21D7E;fill-rule:nonzero}
   ]]>
  </style>
 </defs>
 <g id="Слой_x0020_1">
  <metadata id="CorelCorpID_0Corel-Layer"/>
  <g id="_412670320">
   <path class="fil0" d="M2543.37 402.77c0,7.42 -1.27,15.27 -4.03,23.33 -2.75,8.05 -6.35,15.68 -11.24,22.9 -4.66,7.21 -10.38,13.99 -16.75,19.93 -6.36,5.94 -13.36,10.61 -20.78,14 -32.24,13.14 -67.44,24.81 -105.4,34.35 -37.74,9.75 -75.5,18.03 -113.03,24.61 -37.54,6.56 -73.17,12.08 -106.88,16.11 -33.72,4.24 -62.35,7.43 -85.89,9.97 -3.82,16.12 -7.63,33.29 -11.24,51.32 -3.82,18.02 -7.42,36.26 -11.02,54.71 -3.4,18.45 -6.79,36.48 -10.18,54.29 -3.19,17.81 -6.16,34.57 -8.7,50.26 -3.61,22.48 -7.21,46.24 -10.6,71.47 -3.19,25.24 -6.15,50.47 -8.7,75.5 -2.33,25.02 -4.66,48.98 -6.36,71.46 -1.91,22.69 -3.61,42.42 -4.67,59.38 -1.27,17.39 -2.54,34.99 -3.81,53.02 -1.27,18.02 -1.91,36.26 -1.91,54.49 0,20.58 -0.85,41.57 -2.76,62.78 -1.91,20.99 -6.36,43.9 -13.36,68.29 -9.54,3.82 -19.93,6.35 -30.96,8.06 -11.24,1.69 -21.21,2.54 -29.9,2.54 -26.93,0 -48.78,-5.94 -65.32,-17.39 -16.54,-11.67 -24.81,-30.96 -24.81,-57.9 0,-27.35 1.9,-55.34 5.93,-83.77 3.82,-28.62 8.06,-56.61 12.09,-83.97 2.97,-20.57 7.21,-48.14 13.15,-82.29 5.73,-34.13 12.09,-72.52 19.08,-114.93 7.22,-42.41 14.22,-87.59 21.64,-135.51 7.21,-47.72 13.57,-95.43 19.51,-143.15 -23.33,0.85 -45.59,1.49 -67.22,1.91 -21.42,0.42 -45.39,0.63 -71.47,0.63 -12.73,0 -28.84,-0.63 -48.14,-1.91 -19.09,-1.27 -39.02,-2.96 -59.6,-5.3 -20.56,-2.33 -40.29,-4.87 -59.59,-8.06 -19.29,-3.17 -35.62,-6.78 -48.77,-10.81 -36.48,-14.21 -62.14,-28.42 -76.98,-42.62 -15.06,-14.22 -22.48,-27.36 -22.48,-39.45 0,-13.15 2.75,-24.81 8.48,-34.57 5.51,-9.54 12.3,-17.6 20.15,-23.75 7.85,-6.36 15.69,-11.03 23.54,-13.99 7.85,-3.19 14.42,-4.67 19.3,-4.67 5.72,0 11.24,0.64 16.54,1.91 5.09,1.05 10.39,2.76 15.69,4.67 5.51,1.69 11.24,4.02 17.18,6.35 5.93,2.55 12.94,5.1 20.78,7.42 9.55,3.4 21,6.79 34.15,10.4 13.35,3.39 27.78,6.79 43.46,9.97 15.91,2.96 32.46,5.51 49.85,7.63 17.39,2.12 34.78,3.18 52.17,3.18 27.35,0 54.91,-0.42 82.91,-1.27 27.99,-0.85 52.6,-3.18 73.59,-6.79 3.39,-5.09 7.85,-10.39 13.79,-16.11 5.72,-5.94 12.29,-11.24 19.72,-16.12 7.42,-5.09 15.68,-9.12 24.6,-12.51 8.9,-3.4 18.03,-5.09 27.57,-5.09 14.2,0 26.08,2.97 36.05,8.91 9.96,5.72 17.17,13.14 21.84,22.26 18.66,-2.12 37.53,-4.24 56.83,-6.15 19.3,-2.12 39.23,-4.66 59.6,-7.64 20.56,-2.75 41.77,-6.35 64.04,-10.38 22.05,-4.24 45.81,-9.34 71.04,-15.69 13.36,-3.19 28.42,-7.43 45.17,-12.73 16.76,-5.09 32.66,-10.18 47.72,-15.06 15.27,-5.08 28.2,-9.33 39.23,-12.72 11.03,-3.61 17.39,-5.31 19.51,-5.31 17.39,0 29.47,4.46 36.48,13.57 6.78,9.13 10.17,24.4 10.17,46.03zm554.78 86.31c0,16.54 -3.61,34.99 -11.03,54.93 -7.43,20.14 -17.81,40.72 -30.76,61.92 -13.14,21.21 -28.41,41.99 -45.8,62.77 -17.39,20.57 -36.26,39.87 -56.41,57.68 15.27,5.52 28.63,13.36 40.08,23.75 11.24,10.18 21,22.06 28.85,34.99 7.84,13.15 14.41,26.94 19.51,41.57 5.3,14.85 9.33,29.47 12.08,44.11 2.97,14.84 4.88,28.84 5.94,41.99 1.06,13.36 1.69,25.02 1.69,35.42 0,46.87 -8.05,90.55 -23.96,131.05 -15.9,40.72 -36.68,75.92 -62.13,106.03 -25.45,29.91 -54.29,53.66 -86.32,70.84 -32.23,17.18 -64.46,25.66 -96.7,25.66 -7,0 -16.75,-0.42 -29.27,-1.49 -12.29,-1.05 -26.08,-4.24 -40.92,-9.54 -14.85,-5.51 -30.12,-13.79 -45.6,-25.24 -15.69,-11.45 -29.69,-27.14 -41.99,-47.5 -12.51,-20.36 -22.68,-46.01 -30.75,-77.4 -8.06,-31.18 -12.09,-69.14 -12.09,-113.88 0,-58.11 4.67,-114.52 14.22,-169.66 9.54,-55.13 22.9,-107.09 39.86,-156.08 16.96,-48.78 37.11,-93.52 60.44,-134.03 23.54,-40.72 48.99,-75.71 76.77,-105.19 27.78,-29.25 57.26,-52.17 88.22,-68.49 31.18,-16.33 62.77,-24.6 95.01,-24.6 19.09,0 36.69,2.97 52.59,8.69 15.9,5.73 29.69,14.63 41.35,26.51 11.45,11.66 20.57,26.51 27.36,44.12 6.57,17.59 9.76,37.95 9.76,61.07zm-157.79 469.1c0,-16.12 -1.91,-33.3 -6.14,-51.33 -4.03,-18.02 -9.34,-34.35 -15.91,-49.41 -6.36,-14.85 -13.36,-27.14 -20.99,-36.9 -7.63,-9.75 -15.06,-14.64 -22.06,-14.64 0,0 -5.51,3.82 -16.12,11.25 -10.81,7.42 -24.17,16.75 -40.08,27.56 -16.12,11.04 -32.87,22.7 -50.68,34.78 -17.82,12.31 -33.72,23.33 -47.93,33.3 -0.42,4.24 -1.06,9.97 -1.91,17.18 -0.64,7.21 -1.48,15.05 -2.33,23.32 -0.84,8.28 -1.48,16.34 -1.91,24.4 -0.43,8.05 -0.64,15.26 -0.64,21.42 0,37.74 2.76,68.49 8.49,92.24 5.51,23.97 12.51,42.42 20.78,55.77 8.27,13.15 17.39,22.28 27.57,27.36 10.18,4.88 19.51,7.42 28.21,7.42 22.05,0 41.77,-7.2 59.38,-21.84 17.6,-14.42 32.44,-32.66 44.74,-54.71 12.3,-21.84 21.64,-46.03 27.99,-72.32 6.36,-26.29 9.54,-51.31 9.54,-74.85zm41.15 -461.68c0,-13.15 -2.34,-23.96 -7,-32.02 -4.45,-8.06 -11.24,-12.09 -20.36,-12.09 -18.66,0 -37.75,8.06 -57.26,23.97 -19.51,15.9 -38.38,38.59 -57.05,68.06 -18.66,29.48 -36.47,64.9 -53.43,106.46 -16.97,41.79 -32.24,88.23 -45.39,139.54 22.27,-17.8 42.41,-34.56 60.01,-50.04 17.61,-15.48 33.73,-30.75 48.78,-46.02 14.84,-15.05 29.06,-30.11 42.41,-44.96 13.58,-14.84 27.36,-30.75 41.36,-47.29 4.66,-4.88 9.54,-11.87 14.84,-20.79 5.51,-8.9 10.61,-18.44 15.7,-28.84 4.88,-10.38 9.11,-20.56 12.3,-30.53 3.39,-9.76 5.09,-18.45 5.09,-25.45zm592.09 399.54c-5.73,-5.73 -12.09,-12.3 -18.87,-19.94 -7,-7.42 -12.94,-15.91 -18.45,-25.45 -4.88,-8.69 -8.91,-17.39 -12.09,-26.08 -2.97,-8.7 -5.3,-16.76 -6.79,-24.6 -1.48,-7.64 -2.54,-14.63 -3.18,-21 -0.64,-6.35 -1.06,-12.08 -1.48,-17.17 -7.85,1.27 -16.76,4.24 -26.52,8.7 -9.54,4.66 -19.29,10.17 -29.05,16.53 -9.75,6.37 -18.87,13.15 -27.35,20.15 -8.48,7 -15.69,13.58 -21.42,19.3 -12.09,12.51 -22.91,24.81 -32.45,36.9 -9.33,12.3 -18.23,24.81 -26.29,37.96 -8.06,12.93 -15.91,26.72 -23.33,40.93 -7.42,14.41 -15.27,30.11 -23.54,47.5 -3.39,6.79 -6.37,14.85 -8.69,24.39 -2.55,9.54 -4.67,19.51 -6.58,30.11 -1.91,10.61 -3.39,20.99 -4.46,31.6 -0.84,10.6 -1.48,19.94 -1.48,28.42 0,3.6 1.07,8.48 3.39,14.21 2.34,5.72 5.31,11.23 9.13,16.53 3.6,5.1 7.85,9.55 12.29,13.36 4.67,3.62 9.13,5.53 13.79,5.53 19.08,0 35.42,-0.64 49.41,-1.5 13.79,-1.05 26.94,-3.6 39.44,-7.2 12.31,-3.82 24.81,-9.33 37.12,-16.54 12.51,-7.22 26.72,-16.97 43.05,-29.48 15.69,-12.09 29.9,-26.09 42.84,-42.63 12.72,-16.33 23.74,-33.08 32.87,-50.47 9.11,-17.39 16.32,-34.35 21.42,-51.11 5.3,-16.54 7.84,-30.54 7.84,-42.2l-20.57 -16.75zm471 -37.97c0,19.1 -12.3,41.15 -36.68,65.96 -13.79,13.57 -28.84,25.66 -45.6,35.63 -16.97,10.18 -34.36,18.87 -52.59,25.87 -18.24,7 -36.48,12.3 -54.93,15.9 -18.44,3.4 -35.83,5.31 -51.95,5.31 -9.12,0 -18.87,-0.85 -29.27,-2.33 -10.18,-1.49 -20.57,-3.61 -30.75,-6.37 -9.97,-2.96 -19.72,-6.36 -29.05,-9.97 -9.33,-3.82 -17.82,-8.06 -25.24,-13.14 -4.03,46.01 -18.24,86.94 -42.62,122.79 -24.18,35.83 -59.18,70.4 -105.19,103.91 -33.09,24.17 -71.89,41.77 -116,53.22 -44.11,11.46 -89.71,16.97 -137,16.97 -12.3,0 -24.59,-2.54 -36.47,-7.63 -12.09,-5.31 -23.54,-12.09 -34.36,-20.58 -10.6,-8.47 -20.78,-18.23 -30.11,-29.05 -9.33,-11.02 -17.39,-22.48 -24.17,-34.35 -6.79,-11.67 -12.09,-23.54 -15.91,-35.42 -3.6,-11.66 -5.51,-22.48 -5.51,-32.02 0,-33.08 3.6,-64.04 10.6,-92.67 7,-28.84 16.96,-56.41 30.12,-82.71 12.93,-26.3 28.62,-52.17 46.85,-77.61 18.25,-25.45 38.4,-51.75 60.23,-78.69 12.95,-15.69 28.84,-30.96 47.51,-46.01 18.87,-14.84 38.81,-28.21 59.38,-39.66 20.78,-11.67 41.57,-21 62.77,-28.42 21.21,-7.21 40.29,-10.81 57.26,-10.81 16.54,0 33.08,1.06 49.83,3.18 16.97,2.12 32.87,7.21 47.94,15.48 15.05,8.27 28.84,20.78 41.34,37.33 12.31,16.53 22.49,39.22 30.33,68.28 3.4,12.09 5.93,22.69 7.64,32.02 1.48,9.33 4.23,16.33 8.05,20.78 5.72,7.01 12.52,14.21 20.36,21.42 7.85,7.21 16.75,13.79 26.72,19.73 9.97,5.72 20.99,10.39 33.08,14.21 11.88,3.6 25.03,5.51 39.03,5.51 14.63,0 29.05,-1.07 43.47,-2.97 14.63,-2.13 28.42,-5.09 41.78,-9.12 13.14,-3.82 25.45,-8.9 36.47,-14.84 11.24,-5.94 20.78,-12.73 28.63,-20.15 4.24,-4.25 7.85,-7.85 11.24,-11.03 3.4,-2.97 6.58,-5.72 9.97,-8.06 3.18,-2.33 7,-3.81 11.03,-4.88 4.23,-1.06 8.9,-1.69 14.42,-1.69 4.45,0 8.48,1.49 11.87,4.24 3.18,2.55 5.94,5.72 8.28,9.54 2.32,3.82 4.03,7.63 5.3,11.88 1.26,4.03 1.9,7.85 1.9,11.02zm966.62 -4.87c-0.43,4.87 -2.76,14 -7.43,26.93 -4.45,13.15 -11.45,26.93 -20.57,41.36 -13.15,20.78 -28.84,43.25 -47.08,67.86 -18.23,24.38 -38.17,48.56 -59.59,72.95 -21.63,24.17 -44.54,47.5 -69.13,70.2 -24.39,22.47 -49.42,42.41 -75.5,59.58 -25.87,17.18 -51.95,30.97 -78.47,41.36 -26.5,10.39 -52.8,15.48 -78.89,15.48 -52.59,0 -93.52,-18.45 -122.78,-55.35 -29.26,-36.69 -43.9,-93.73 -44.32,-170.72 -11.25,14.85 -23.75,30.12 -37.33,46.02 -13.78,15.69 -27.57,30.97 -41.99,45.6 -14.2,14.63 -28.42,28.62 -42.2,41.56 -13.99,13.15 -26.93,24.6 -38.81,34.57 -32.44,26.51 -64.05,48.57 -95.42,66.16 -31.18,17.6 -62.14,26.3 -92.89,26.3 -6.15,0 -15.69,-2.12 -28.21,-6.36 -12.72,-4.46 -25.45,-11.88 -38.6,-22.05 -12.93,-10.4 -24.38,-24.4 -34.14,-42 -9.75,-17.6 -14.63,-39.65 -14.63,-66.17 0,-25.23 1.49,-49.19 4.03,-71.46 2.76,-22.48 6.57,-44.32 11.23,-65.95 4.67,-21.42 10.4,-43.05 17.19,-64.89 6.57,-21.64 13.57,-44.54 20.99,-68.72 2.97,-8.69 6.57,-19.08 10.82,-31.38 4.45,-12.09 8.69,-23.96 13.14,-35.63 4.24,-11.66 8.06,-21.84 11.45,-30.75 3.4,-8.9 5.1,-14.21 5.1,-15.9 0.63,-7 4.03,-14.84 9.75,-23.54 5.94,-8.69 12.94,-16.97 21,-24.81 8.06,-7.85 16.32,-14.42 24.81,-19.73 8.48,-5.08 15.69,-7.63 21.42,-7.63 11.66,0 21.84,2.55 30.96,7.63 9.11,5.31 16.75,11.67 23.11,19.09 6.15,7.43 10.82,15.06 14,22.91 2.97,7.84 4.66,14.84 4.66,20.56 0,3.39 -1.27,8.69 -3.39,16.12 -2.33,7.43 -5.51,16.12 -9.75,25.87 -4.03,9.76 -8.69,20.15 -14,31.6 -5.09,11.45 -10.6,22.9 -16.33,34.57 -8.06,15.69 -15.48,33.93 -22.48,54.93 -7,20.99 -13.15,42.41 -18.23,64.67 -5.3,22.06 -9.33,43.69 -12.52,64.47 -3.18,21 -4.66,39.03 -4.66,54.51 0,2.75 0.21,6.36 0.43,10.39 0.2,4.23 0.63,8.26 1.69,12.29 1.06,3.82 2.54,7.21 4.03,10.19 1.7,2.96 3.82,4.24 6.36,4.24 8.7,0 20.15,-4.03 34.36,-12.3 14.41,-8.28 29.89,-19.09 46.65,-32.45 16.75,-13.14 34.14,-28 51.96,-44.32 17.81,-16.33 34.99,-32.66 51.53,-48.99 16.54,-16.54 31.6,-31.81 45.38,-46.44 13.58,-14.43 24.39,-26.51 32.24,-36.05 19.08,-21.85 35.83,-43.27 50.26,-64.26 14.62,-20.78 28.62,-43.69 42.41,-68.71 6.99,-12.3 13.57,-23.54 19.51,-33.5 5.94,-9.97 12.09,-18.25 18.24,-25.03 6.36,-7 12.72,-12.09 19.72,-15.69 6.79,-3.4 14.42,-5.31 23.11,-5.31 16.33,0 29.48,5.1 39.45,15.27 10.18,10.18 15.27,27.57 15.27,51.96 0,2.12 -1.91,7.85 -5.52,17.39 -3.81,9.54 -8.06,19.72 -12.72,30.75 -4.88,11.03 -9.33,21.21 -13.78,30.96 -4.24,9.76 -6.79,15.91 -7.64,18.45 -4.66,11.45 -8.48,24.61 -11.45,38.81 -3.18,14.21 -5.72,28.62 -7.63,42.84 -1.71,14.21 -2.97,27.99 -3.61,40.93 -0.63,13.14 -1.06,24.38 -1.06,33.92 0,31.82 6.37,56.84 19.09,74.87 12.51,18.02 30.11,27.14 52.38,27.14 15.48,0 32.02,-4.03 50.04,-11.87 18.03,-7.85 36.69,-18.46 56.2,-31.39 19.51,-13.15 39.24,-28.2 59.17,-45.38 19.72,-17.18 39.23,-35.2 58.11,-54.08 18.66,-18.88 36.69,-37.75 53.65,-57.05 16.96,-19.29 32.23,-37.54 46.02,-54.5 4.88,-5.72 10.39,-11.66 16.12,-17.6 5.72,-6.15 11.66,-11.45 17.6,-16.12 6.14,-4.87 11.66,-8.69 16.96,-11.87 5.09,-3.19 9.33,-4.67 12.72,-4.67 2.76,0 5.94,0.22 9.34,0.64 3.18,0.42 6.36,1.48 9.12,3.39 2.96,1.91 5.3,4.67 7.21,8.49 1.9,3.6 2.76,8.69 2.76,14.84zm372.81 528.05c0,12.51 -2.55,20.78 -7.85,25.23 -5.08,4.25 -15.26,6.58 -30.1,6.58 -9.97,0 -31.39,-1.91 -64.69,-5.72 -16.54,-1.7 -30.11,-2.77 -40.93,-3.61 -10.81,-0.85 -18.87,-1.28 -24.17,-1.28 -19.51,0 -42.2,0.86 -68.29,2.34 -26.09,1.69 -52.81,3.6 -80.16,5.3 -27.35,1.91 -54.08,3.6 -80.16,5.3 -26.09,1.7 -49.2,2.54 -69.14,2.54 -3.18,0 -9.12,-0.21 -17.81,-0.63 -8.7,-0.42 -19.93,-1.06 -33.72,-1.91 -13.57,-0.85 -24.81,-1.49 -33.51,-1.7 -8.69,-0.42 -14.63,-0.63 -18.02,-0.63 -12.73,0 -22.27,-4.03 -28.63,-12.3 -6.15,-8.06 -9.34,-17.6 -9.34,-28.84 0,-9.97 3.82,-18.45 11.04,-25.67 7.21,-7.42 16.11,-11.02 26.93,-11.02 2.12,0 6.57,-0.21 13.79,-0.85 6.99,-0.63 16.53,-1.27 28.41,-2.12 12.09,-0.85 22.48,-1.7 31.39,-2.33 8.9,-0.64 16.32,-0.85 22.05,-0.85 7.63,0 16.54,0.21 27.14,0.64 10.61,0.42 22.49,1.05 35.63,1.91 13.36,0.84 26.3,1.48 38.81,1.9 12.72,0.22 25.03,0.43 37.12,0.43 18.87,0 46.65,-1.7 83.13,-5.52 18.65,-1.7 35.2,-2.97 49.4,-3.6 14.43,-0.85 26.52,-1.27 36.48,-1.27 6.58,0 27.36,1.69 62.56,5.51 17.82,2.12 32.23,3.6 43.05,4.67 10.6,1.05 18.03,1.48 21.64,1.48 10.81,0 19.71,4.03 27.14,11.88 7.21,7.84 10.81,19.3 10.81,34.14zm1447.57 -525.5c0,3.6 -0.84,8.47 -2.75,14.41 -1.91,6.15 -4.24,12.52 -7.21,19.3 -2.76,7.01 -6.36,13.79 -10.18,20.78 -4.03,7.22 -7.85,13.79 -11.45,19.94 -6.79,10.39 -15.7,22.48 -26.73,36.06 -11.24,13.77 -23.74,27.98 -37.32,42.83 -13.78,15.06 -28.21,29.9 -43.47,44.74 -15.27,15.06 -30.54,28.84 -45.38,41.57 -12.09,9.97 -26.09,21 -42.21,33.09 -16.11,11.87 -33.5,23.11 -51.53,33.5 -18.24,10.39 -36.9,18.88 -55.77,25.87 -18.87,6.79 -36.9,10.18 -54.29,10.18 -16.12,0 -31.82,-3.18 -46.87,-9.54 -15.27,-6.58 -29.27,-18.67 -42.2,-36.47 -13.15,-17.82 -24.6,-42.63 -34.57,-74.44 -9.96,-32.02 -17.81,-73.38 -23.54,-124.28 -0.42,-5.08 -1.06,-12.72 -1.69,-23.32 -0.64,-10.6 -1.28,-21.21 -1.7,-31.81 -0.64,-10.39 -1.49,-19.72 -2.33,-27.57 -0.86,-7.85 -1.7,-11.88 -2.34,-11.88 -3.39,0 -8.9,5.09 -16.53,15.06 -7.64,9.75 -16.76,22.9 -27.36,39.45 -10.61,16.32 -22.06,35.2 -34.57,56.41 -12.3,21.42 -25.23,43.47 -38.39,66.16 -16.54,29.06 -32.23,55.14 -46.86,78.04 -14.85,22.9 -28.64,42.2 -41.78,57.68 -12.94,15.69 -25.66,27.57 -37.75,35.84 -12.3,8.28 -24.6,12.31 -37.11,12.31 -19.08,0 -34.56,-3.62 -46.44,-10.83 -12.09,-7.2 -21.63,-18.44 -28.63,-33.5 -7,-15.06 -12.09,-34.57 -15.06,-58.31 -2.75,-23.97 -4.66,-52.17 -5.52,-84.84 -1.27,-54.71 -2.96,-97.33 -5.3,-128.08 -2.33,-30.55 -5.51,-46.03 -9.54,-46.03 -5.08,0 -13.36,6.58 -24.81,19.3 -11.66,12.94 -25.45,30.55 -41.35,52.81 -15.91,22.48 -33.3,48.78 -52.17,78.89 -18.87,30.33 -38.39,62.77 -58.11,97.55 -5.09,9.12 -11.02,19.72 -18.03,31.81 -6.99,11.87 -14.41,24.18 -21.83,36.69 -7.42,12.3 -14.86,24.39 -22.06,35.84 -7.21,11.66 -13.79,21.63 -19.51,29.9 -7.42,10.81 -16.54,18.87 -27.36,24.6 -10.81,5.51 -22.05,8.27 -34.14,8.27 -16.96,0 -31.39,-3.6 -43.48,-10.82 -12.08,-7.21 -21.84,-17.17 -29.26,-29.47 -7.43,-12.51 -12.94,-27.14 -16.33,-44.12 -3.6,-16.96 -5.3,-34.99 -5.3,-54.07 0,-16.97 0.42,-32.23 1.06,-46.02 0.85,-13.57 2.12,-27.36 3.81,-41.36 1.7,-13.78 3.61,-28.41 5.94,-43.68 2.34,-15.27 4.88,-32.87 7.64,-52.81 2.54,-17.38 4.45,-35.83 5.72,-54.91 1.28,-19.3 2.55,-38.18 3.61,-56.63 1.27,-18.45 2.76,-35.63 4.45,-51.32 1.7,-15.7 4.03,-28.85 6.79,-39.03 2.11,-7.2 4.88,-14.63 8.05,-22.69 3.4,-8.06 8.06,-15.69 14.43,-22.47 6.15,-6.79 14,-12.52 23.54,-17.39 9.54,-4.67 21.42,-7 35.41,-7 12.94,0 23.12,2.33 30.96,7 8.06,4.87 14,11.24 18.03,19.3 4.24,8.06 7,17.39 8.48,27.99 1.49,10.6 2.13,21.63 2.13,33.29 0,9.76 -1.28,23.33 -4.03,40.29 -2.76,16.98 -5.94,35.85 -9.97,56.2 -3.82,20.58 -8.28,41.78 -13.36,64.05 -4.88,22.06 -9.54,43.48 -14,63.62 -4.24,20.36 -8.06,38.59 -11.45,55.14 -3.18,16.32 -5.51,29.05 -6.79,38.17 0.85,-1.7 3.19,-5.94 7.22,-12.51 3.81,-6.58 8.68,-14.64 14.2,-24.18 5.52,-9.54 11.46,-19.72 17.81,-30.54 6.15,-10.6 12.09,-20.78 17.61,-30.32 5.51,-9.55 10.39,-17.81 14.63,-24.82 4.03,-7.21 6.57,-11.45 7.42,-13.14 7.43,-12.51 16.11,-26.51 26.08,-41.99 9.97,-15.48 20.37,-31.18 31.18,-47.08 10.61,-16.12 21.42,-31.18 31.81,-45.81 10.6,-14.42 20.36,-26.71 29.06,-36.68 18.65,-21 38.38,-36.9 59.16,-47.72 20.99,-10.82 43.26,-16.12 66.81,-16.12 25.44,0 46.44,8.69 63.4,26.08 16.96,17.39 28.42,40.09 34.14,68.29 2.12,10.4 3.82,23.33 5.1,39.24 1.27,15.69 2.12,32.02 2.75,49.19 0.64,17.39 1.06,34.57 1.48,51.96 0.43,17.4 0.85,32.88 1.07,46.65 0.21,13.58 0.42,24.82 0.84,33.51 0.42,8.7 1.28,13.15 2.55,13.15 3.6,0 9.11,-5.3 16.12,-15.7 6.99,-10.38 14.84,-23.32 23.54,-39.01 8.69,-15.9 17.8,-32.87 27.36,-51.11 9.54,-18.03 18.65,-34.99 27.34,-50.26 14.64,-24.38 29.91,-47.92 46.03,-70.41 16.11,-22.69 32.23,-42.63 48.14,-59.8 15.91,-17.18 31.17,-30.75 45.59,-40.93 14.64,-10.17 27.36,-15.27 38.59,-15.27 7.85,0 15.91,0.85 24.18,2.55 8.28,1.69 16.33,4.03 23.96,7.21 7.64,2.97 14.64,6.79 20.79,11.02 6.15,4.46 11.03,9.34 14.42,14.64 7,11.24 12.09,23.54 15.48,36.69 3.19,13.35 5.72,27.99 7,44.1 1.48,16.12 2.54,33.94 3.18,53.45 0.64,19.51 2.12,40.92 4.67,64.68 4.66,43.05 11.24,76.77 19.93,101.15 8.7,24.6 20.99,36.69 37.32,36.69 7,0 16.12,-2.55 27.58,-7.63 11.45,-5.3 23.74,-11.88 37.31,-19.94 13.37,-8.06 27.36,-17.18 41.57,-27.14 14.21,-9.97 27.57,-19.73 40.08,-29.69 13.79,-10.82 26.72,-21.84 39.23,-33.29 12.31,-11.46 24.6,-23.12 36.91,-35.21 12.3,-11.88 24.59,-24.38 37.32,-37.54 12.51,-12.93 25.87,-26.72 40.08,-41.35 8.69,-8.7 18.66,-12.94 29.69,-12.94 13.36,0 19.93,9.54 19.93,28.64z"/>
   <path class="fil0" d="M7713.81 863.17c0,3.6 -2.12,9.75 -6.37,18.23 -4.03,8.49 -9.75,18.88 -17.39,30.75 -7.42,12.09 -16.12,25.03 -26.29,39.23 -10.18,14 -21.21,28.63 -33.3,43.48 -19.08,23.12 -38.8,46.66 -59.38,70.19 -20.36,23.54 -41.77,46.45 -64.25,68.72 -22.27,22.05 -45.39,42.83 -68.93,62.35 -23.54,19.51 -47.92,36.47 -72.73,50.89 -24.81,14.63 -50.26,25.87 -76.14,34.14 -25.87,8.48 -51.95,12.51 -78.46,12.51 -34.78,0 -62.99,-5.09 -84.62,-15.27 -21.42,-10.17 -39.02,-23.74 -52.8,-41.34 -13.57,-17.39 -24.39,-37.54 -32.24,-60.45 -7.85,-23.11 -15.27,-47.29 -22.48,-72.94 -6.15,-22.49 -13.35,-37.97 -21.41,-46.66 -8.06,-8.7 -16.34,-13.16 -25.03,-13.16 -2.97,0 -7.42,0.86 -13.36,2.34 -6.15,1.28 -12.51,3.19 -19.3,5.51 -6.79,2.34 -13.57,4.88 -20.15,7.85 -6.78,2.76 -12.3,5.94 -16.75,9.33 -2.12,1.06 -3.81,4.45 -5.3,10.18 -1.49,5.51 -2.76,14.64 -3.82,26.93 -1.06,12.52 -1.91,29.05 -2.54,49.84 -0.64,20.57 -0.85,46.65 -0.85,78.25 0,9.97 -1.7,18.24 -4.87,25.02 -3.4,7.01 -7.85,12.52 -13.36,16.97 -5.73,4.24 -12.31,7.43 -19.73,9.34 -7.42,1.69 -15.05,2.75 -22.9,2.75 -14.85,0 -27.14,-2.54 -36.69,-7.85 -9.54,-5.09 -16.97,-12.72 -22.27,-22.69 -5.51,-9.97 -9.12,-22.06 -11.02,-36.26 -1.91,-14.42 -2.76,-30.54 -2.76,-48.78 0,-6.99 0.63,-18.65 2.12,-34.56 1.48,-15.91 3.39,-34.57 5.72,-55.77 2.12,-21.42 4.88,-44.54 8.06,-69.36 2.97,-24.81 6.37,-50.04 9.97,-75.28 3.39,-25.24 6.78,-49.62 10.18,-73.59 3.39,-23.74 6.57,-45.38 9.55,-64.46 3.17,-19.3 5.93,-35.42 8.47,-48.35 2.55,-12.73 4.46,-20.79 6.15,-24.18l-0.64 0.64c2.55,-5.31 6.16,-10.82 10.61,-16.12 4.67,-5.3 9.97,-10.18 15.91,-14.22 5.94,-4.23 12.72,-7.63 20.14,-10.38 7.43,-2.55 15.06,-4.03 22.91,-4.03 9.96,0 18.87,2.33 26.51,6.78 7.63,4.67 14.21,10.4 19.93,17.18 5.52,6.79 9.76,14.21 12.72,22.27 2.77,8.27 4.25,15.69 4.25,22.69 0,13.36 -2.34,31.6 -7.42,55.14 -4.89,23.33 -10.82,50.47 -17.39,81.65 -3.19,14.41 -6.15,27.14 -8.28,37.95 -2.33,10.61 -4.45,22.48 -6.57,35.42 5.72,-1.69 12.73,-3.81 20.79,-6.58 8.05,-2.75 16.75,-5.93 25.86,-9.75 8.91,-3.6 18.24,-8.06 27.79,-13.36 9.54,-5.09 18.65,-10.81 27.35,-16.96 7.42,-5.73 15.49,-13.58 23.96,-23.12 8.49,-9.33 17.18,-19.72 25.88,-30.75 8.69,-10.82 17.17,-22.06 25.66,-33.08 8.48,-11.24 16.54,-21.21 23.96,-29.91 6.15,-7.84 12.51,-15.05 18.88,-21.63 6.57,-6.78 12.08,-12.29 16.54,-16.96 7.84,-7.85 16.53,-15.06 25.87,-22.06 9.33,-6.78 18.66,-12.72 28.2,-18.02 9.55,-5.1 18.87,-9.12 28,-12.09 9.12,-2.76 17.18,-4.24 24.17,-4.24 12.09,0 22.69,1.91 32.03,5.51 9.33,3.82 17.17,8.49 23.53,14.42 6.36,5.73 11.25,12.09 14.64,19.09 3.39,7.21 4.87,14 4.87,20.57 0,5.09 -1.27,10.6 -4.03,17.18 -2.54,6.36 -6.35,12.72 -11.02,19.09 -4.88,6.56 -10.19,12.29 -15.91,17.17 -5.73,4.88 -11.87,8.48 -18.02,10.6l0.63 0c-13.36,4.46 -26.93,12.09 -40.72,22.91 -13.78,10.81 -27.35,23.96 -40.72,39.23 -6.14,7 -13.57,14.85 -22.04,23.33 -8.49,8.48 -17.39,16.96 -26.94,25.66 -9.54,8.69 -19.72,17.17 -30.12,25.45 -10.59,8.27 -21.2,15.91 -32.01,22.47 14.41,8.28 26.93,19.09 37.53,32.24 10.61,13.36 18.24,31.38 23.33,54.08 4.03,17.81 8.48,33.29 13.35,46.23 4.67,13.15 10.4,23.75 16.76,31.8 6.37,8.07 14,14 22.91,18.03 8.9,3.82 19.72,5.94 32.01,5.94 27.36,0 57.69,-7.42 90.98,-21.84 33.51,-14.42 68.5,-38.6 105.4,-72.11 15.27,-13.57 31.18,-28.84 47.5,-45.38 16.33,-16.54 32.67,-33.51 49.21,-51.11 16.33,-17.6 32.44,-35.41 48.77,-53.44 16.12,-18.02 31.6,-35.41 46.45,-51.95 3.81,-4.03 7.84,-8.7 12.5,-13.57 4.46,-5.1 9.55,-9.55 14.85,-13.79 5.52,-4.03 11.24,-7.63 17.82,-10.61 6.35,-2.75 13.36,-4.23 20.78,-4.23 8.27,0 14.84,2.11 19.93,6.14 4.88,4.25 7.43,11.04 7.43,20.58zm147.17 145.27c12.51,-13.58 25.66,-30.34 39.87,-50.05 14,-19.51 27.57,-40.93 40.72,-63.83 12.93,-23.13 24.59,-47.09 34.78,-72.54 9.96,-25.23 17.38,-50.04 22.05,-74.44 -2.54,-9.54 -6.15,-15.89 -11.03,-18.87 -4.66,-3.17 -9.33,-4.66 -13.99,-4.66 -9.12,0 -18.67,1.7 -29.05,5.52 -10.4,3.6 -20.15,7.84 -29.27,12.29 -11.24,5.52 -24.61,15.48 -40.09,30.33 -15.48,14.63 -31.37,32.23 -47.92,52.8 -16.33,20.36 -32.45,42.84 -48.35,67.23 -15.91,24.6 -30.33,48.98 -42.84,73.38 -12.72,24.38 -22.9,47.92 -30.54,70.61 -7.63,22.49 -11.45,42.21 -11.45,59.17 0,4.66 0.43,9.33 0.85,14.42 0.63,4.88 1.7,9.54 2.97,13.57 1.05,4.24 2.76,7.63 4.87,10.4 2.12,2.54 4.88,4.03 8.06,4.03 3.4,0 9.76,-3.18 19.09,-9.33 9.12,-6.37 20.57,-15.06 34.15,-26.09 13.36,-11.24 28.41,-24.81 45.37,-40.72 16.76,-15.91 33.94,-33.71 51.75,-53.22zm623.9 -153.97c5.73,-6.78 11.88,-12.72 18.46,-18.02 6.78,-5.52 14,-8.06 21.84,-8.06 7.85,0 13.36,2.54 16.75,7.63 3.39,5.3 4.87,14.42 4.87,27.78 0,11.03 -1.9,23.54 -5.72,36.9 -4.03,13.57 -9.54,24.82 -16.54,33.93 -8.7,10.6 -19.3,23.12 -32.02,36.91 -12.51,13.78 -26.51,28.41 -41.99,43.46 -15.27,15.07 -31.39,30.34 -48.35,45.39 -16.97,15.06 -33.93,29.48 -50.69,43.27 -16.75,13.57 -33.08,26.07 -48.98,37.1 -16.12,11.25 -30.76,20.15 -44.53,26.73 -16.12,7.84 -30.97,14.63 -44.33,19.93 -13.57,5.51 -26.94,9.96 -40.08,13.35 -13.36,3.61 -26.72,6.16 -40.51,7.85 -13.57,1.7 -28.41,2.34 -44.74,2.34 -18.45,0 -35.21,-4.25 -49.84,-12.94 -14.84,-8.7 -27.36,-20.99 -37.95,-36.68 -10.61,-15.7 -18.89,-34.78 -24.61,-56.84 -5.73,-22.06 -8.69,-46.66 -8.69,-73.59 -14,16.96 -29.27,34.35 -45.39,52.17 -16.11,17.81 -32.87,34.99 -50.04,51.95 -17.18,16.76 -34.36,32.46 -51.53,47.09 -17.18,14.84 -33.51,27.78 -49.42,38.81 -15.69,11.23 -30.32,20.15 -44.11,26.5 -13.57,6.37 -25.45,9.54 -35.42,9.54 -21.42,0 -40.07,-3.6 -55.55,-11.23 -15.49,-7.43 -28.21,-16.97 -38.17,-28.84 -9.97,-11.67 -17.39,-25.03 -22.06,-39.66 -4.67,-14.85 -7.21,-29.05 -7.21,-43.26 0,-6.58 0.43,-14.84 1.06,-24.6 0.63,-9.54 1.48,-19.51 2.76,-29.69 1.27,-10.18 2.75,-20.15 4.66,-30.12 1.9,-9.96 4.03,-18.66 6.57,-26.08 7,-25.02 16.97,-50.9 29.7,-78.04 12.93,-27.15 27.56,-54.08 44.1,-80.8 16.54,-26.72 34.57,-52.59 53.87,-78.04 19.08,-25.24 39.02,-48.14 59.59,-68.92 20.57,-20.57 40.93,-38.38 61.5,-53.02 20.57,-14.84 40.08,-25.24 58.74,-31.39 4.46,-2.54 11.03,-5.09 19.3,-7.42 8.27,-2.54 17.17,-4.87 26.72,-7 9.55,-1.9 18.67,-3.6 27.57,-4.88 8.91,-1.27 16.12,-1.91 21.42,-1.91 10.82,0 20.57,2.12 29.48,6.37 8.9,4.03 16.75,9.54 23.54,16.76 6.99,6.99 12.72,14.84 17.17,23.53 4.66,8.7 7.64,17.81 9.33,27.36 7.42,0.42 14.64,1.69 21.85,3.6 6.99,2.12 13.36,5.1 18.87,8.7 5.51,3.82 10.18,8.48 13.57,14 3.61,5.72 5.3,12.08 5.3,19.08 0,4.03 -0.63,9.97 -2.12,17.39 -1.48,7.42 -3.18,15.48 -5.3,24.17 -2.12,8.7 -4.45,17.61 -7.42,26.94 -2.97,9.34 -5.51,18.24 -8.06,26.51 -2.55,8.26 -5.08,18.45 -7.42,30.75 -2.55,12.29 -4.88,24.81 -6.99,37.96 -1.91,12.94 -3.62,25.87 -4.89,38.38 -1.27,12.73 -1.91,23.75 -1.91,33.3 0,42.62 4.89,74.22 14.43,94.36 9.54,20.37 25.02,30.55 46.44,30.55 10.39,0 23.53,-3.19 39.44,-9.34 16.12,-6.14 33.72,-14.84 53.24,-25.87 19.51,-10.82 40.07,-23.75 62.13,-38.81 21.84,-14.84 43.9,-31.17 65.74,-48.77 22.05,-17.61 43.47,-36.05 64.46,-55.56 20.79,-19.51 40.31,-39.24 58.11,-58.96zm990.79 20.36c0,5.09 -2.76,13.36 -8.27,25.24 -5.73,11.88 -14.84,27.36 -27.79,46.65 -12.72,19.3 -29.68,42.42 -50.89,69.35 -21,26.72 -47.08,57.89 -78.25,93.1 -18.66,20.78 -39.45,41.98 -62.35,64.04 -23.12,21.84 -47.72,41.78 -73.81,59.81 -26.07,18.01 -53.43,32.87 -82.49,44.53 -29.05,11.66 -58.74,17.39 -88.85,17.39 -26.09,0 -48.57,-4.03 -67.23,-11.88 -18.45,-7.85 -33.93,-18.87 -45.81,-33.08 -12.09,-14.43 -20.99,-31.82 -26.72,-52.6 -5.93,-20.78 -8.7,-43.68 -8.7,-68.91 0,-15.7 0.86,-35.85 2.77,-60.23 1.9,-24.6 5.29,-49.21 10.18,-74.02 -7.85,7 -18.46,13.36 -31.6,18.88 -13.36,5.72 -28.84,10.6 -46.66,15.06 -17.82,4.23 -37.53,8.26 -58.95,11.66 -21.63,3.61 -44.53,7 -68.93,10.39 -2.96,0.43 -5.51,2.33 -7.84,5.72 -2.33,3.61 -4.24,7.85 -5.52,12.52 -1.48,4.66 -2.75,9.76 -3.81,14.84 -1.06,5.3 -1.91,10.18 -2.75,14.63 -1.71,11.25 -3.41,23.97 -5.31,38.61 -1.91,14.41 -2.75,29.68 -2.75,46.01 0.84,4.45 1.26,10.81 1.26,18.87 0,8.06 0,16.12 0,23.97 0,5.3 -0.21,10.81 -0.64,16.33 -0.41,5.72 -1.48,11.45 -3.17,17.17 -3.39,8.7 -5.94,17.39 -7.85,25.88 -1.7,8.48 -4.67,16.12 -8.27,22.9 -3.82,6.79 -9.55,12.3 -17.18,16.55 -7.63,4.03 -19.3,6.14 -34.99,6.14 -15.06,0 -27.15,-2.33 -36.69,-7.21 -9.54,-4.66 -16.96,-11.02 -22.47,-18.66 -5.3,-7.63 -8.92,-16.33 -10.83,-26.3 -1.9,-9.96 -2.75,-20.14 -2.75,-30.54 0,-10.81 0.43,-21.2 1.27,-31.38 0.86,-10.18 1.28,-17.39 1.28,-22.05 0,-4.03 0.84,-10.82 2.75,-20.15 1.91,-9.33 3.82,-20.14 6.15,-32.23 2.34,-12.31 4.46,-25.24 6.16,-39.24 1.9,-13.79 2.96,-27.36 2.96,-40.72 0,-3.17 -1.48,-6.15 -4.03,-8.9 -2.75,-2.76 -5.72,-5.73 -8.69,-9.13 -3.19,-3.17 -6.15,-7.63 -8.7,-12.93 -2.75,-5.51 -4.03,-12.51 -4.03,-21.21 0,-9.54 1.7,-17.17 5.52,-23.32 3.61,-5.94 7.84,-11.03 12.3,-15.06 4.67,-4.24 8.91,-8.06 12.93,-11.24 3.83,-3.4 5.94,-7 6.36,-11.24 1.7,-16.11 3.4,-33.5 5.1,-51.96 1.7,-18.23 3.18,-36.26 4.66,-53.86 1.48,-17.6 2.76,-34.57 4.24,-50.69 1.49,-16.11 2.76,-30.11 4.03,-41.56 0.43,-5.51 2.13,-13.57 5.09,-24.39 2.76,-10.81 7.22,-21.42 13.36,-32.23 5.94,-10.81 13.78,-20.15 23.33,-28.2 9.33,-8.06 20.99,-12.09 34.78,-12.09 12.73,0 23.11,3.17 30.74,9.75 7.65,6.78 13.58,14.63 18.03,23.76 4.25,9.11 7.21,18.44 8.7,28.2 1.27,9.75 2.12,17.81 2.12,24.59 0,3.19 -1.27,10.83 -3.4,22.7 -2.32,11.67 -4.66,25.66 -7.2,41.78 -2.55,16.33 -4.88,33.51 -7.21,51.95 -2.12,18.46 -3.39,35.63 -3.39,51.96 0,2.76 0,7 -0.22,12.73 -0.21,5.51 -0.63,8.26 -1.06,8.26 25.45,0 49.63,-0.84 72.74,-2.75 23.33,-1.91 44.54,-4.67 63.62,-8.28 19.3,-3.81 35.84,-8.47 49.84,-13.78 13.78,-5.3 24.18,-11.45 30.75,-18.02 6.15,-6.58 11.87,-15.48 16.74,-26.3 4.89,-11.03 9.13,-22.9 12.52,-35.42 3.18,-12.72 5.94,-25.65 8.27,-38.8 2.34,-13.37 3.82,-25.66 4.66,-36.7 0.86,-12.08 2.77,-23.32 5.94,-33.71 3.19,-10.18 7.64,-19.08 13.58,-26.72 6.15,-7.42 13.78,-13.36 23.32,-17.6 9.55,-4.46 21.21,-6.58 34.78,-6.58 11.24,0 20.58,2.12 28,6.37 7.42,4.03 13.57,9.54 18.02,16.75 4.67,7 7.85,15.05 9.97,24.39 2.12,9.33 3.18,19.3 3.18,29.47 0,9.97 -1.49,21.63 -4.03,34.99 -2.76,13.16 -6.15,26.73 -9.96,40.3 -4.03,13.57 -8.28,27.14 -12.73,40.29 -4.66,13.36 -8.48,25.45 -11.87,36.05 -2.12,6.79 -4.67,16.33 -7.85,29.05 -2.97,12.52 -5.94,26.94 -8.7,43.48 -2.55,16.33 -5.08,34.14 -6.99,53.65 -2.12,19.51 -3.19,39.45 -3.19,59.59 0,17.39 1.28,32.24 4.03,44.54 2.76,12.09 6.37,22.06 11.25,29.69 4.66,7.85 10.38,13.15 16.75,16.54 6.36,3.39 13.36,4.88 20.78,4.88 11.24,0 23.33,-1.91 36.69,-5.73 13.14,-4.03 27.57,-10.18 42.83,-18.67 15.27,-8.47 31.82,-19.92 49.62,-33.92 17.82,-14 36.91,-31.18 57.27,-51.54 16.96,-17.39 33.71,-35.19 50.05,-53.22 16.33,-17.82 32.01,-35.64 46.86,-52.81 14.85,-17.18 29.06,-33.3 42.63,-48.35 13.36,-15.06 25.66,-28.42 36.69,-39.87 10.81,-11.24 20.56,-20.36 29.05,-26.93 8.48,-6.58 15.27,-9.97 20.14,-9.97 6.37,0 11.25,1.27 14.64,4.03 3.6,2.75 6.36,6.15 8.06,10.18 1.91,4.24 2.96,8.69 3.39,13.36 0.43,4.88 0.64,9.33 0.64,13.36zm981.03 -21.63c-0.43,4.87 -2.76,14 -7.42,26.93 -4.46,13.15 -11.45,26.93 -20.58,41.36 -13.15,20.78 -28.84,43.25 -47.07,67.86 -18.24,24.38 -38.18,48.56 -59.6,72.95 -21.62,24.17 -44.54,47.5 -69.13,70.2 -24.39,22.47 -49.41,42.41 -75.5,59.58 -25.87,17.18 -51.95,30.97 -78.46,41.36 -26.51,10.39 -52.81,15.48 -78.9,15.48 -52.58,0 -93.51,-18.45 -122.78,-55.35 -29.26,-36.69 -43.9,-93.73 -44.32,-170.72 -11.24,14.85 -23.75,30.12 -37.33,46.02 -13.78,15.69 -27.57,30.97 -41.98,45.6 -14.21,14.63 -28.43,28.62 -42.21,41.56 -13.99,13.15 -26.93,24.6 -38.8,34.57 -32.45,26.51 -64.05,48.57 -95.43,66.16 -31.18,17.6 -62.14,26.3 -92.89,26.3 -6.15,0 -15.69,-2.12 -28.21,-6.36 -12.72,-4.46 -25.44,-11.88 -38.6,-22.05 -12.93,-10.4 -24.38,-24.4 -34.14,-42 -9.75,-17.6 -14.63,-39.65 -14.63,-66.17 0,-25.23 1.49,-49.19 4.03,-71.46 2.76,-22.48 6.57,-44.32 11.24,-65.95 4.66,-21.42 10.39,-43.05 17.18,-64.89 6.57,-21.64 13.57,-44.54 20.99,-68.72 2.97,-8.69 6.58,-19.08 10.82,-31.38 4.45,-12.09 8.69,-23.96 13.15,-35.63 4.23,-11.66 8.05,-21.84 11.45,-30.75 3.39,-8.9 5.09,-14.21 5.09,-15.9 0.64,-7 4.03,-14.84 9.75,-23.54 5.94,-8.69 12.94,-16.97 21,-24.81 8.06,-7.85 16.33,-14.42 24.81,-19.73 8.48,-5.08 15.69,-7.63 21.42,-7.63 11.66,0 21.84,2.55 30.96,7.63 9.12,5.31 16.76,11.67 23.11,19.09 6.15,7.43 10.82,15.06 14,22.91 2.97,7.84 4.67,14.84 4.67,20.56 0,3.39 -1.28,8.69 -3.4,16.12 -2.32,7.43 -5.51,16.12 -9.75,25.87 -4.03,9.76 -8.69,20.15 -13.99,31.6 -5.1,11.45 -10.61,22.9 -16.34,34.57 -8.06,15.69 -15.48,33.93 -22.47,54.93 -7.01,20.99 -13.15,42.41 -18.24,64.67 -5.3,22.06 -9.33,43.69 -12.51,64.47 -3.19,21 -4.67,39.03 -4.67,54.51 0,2.75 0.21,6.36 0.43,10.39 0.21,4.23 0.63,8.26 1.69,12.29 1.06,3.82 2.55,7.21 4.03,10.19 1.7,2.96 3.82,4.24 6.37,4.24 8.69,0 20.14,-4.03 34.35,-12.3 14.41,-8.28 29.89,-19.09 46.65,-32.45 16.75,-13.14 34.14,-28 51.96,-44.32 17.82,-16.33 34.99,-32.66 51.53,-48.99 16.54,-16.54 31.6,-31.81 45.38,-46.44 13.58,-14.43 24.39,-26.51 32.24,-36.05 19.08,-21.85 35.84,-43.27 50.26,-64.26 14.63,-20.78 28.62,-43.69 42.41,-68.71 7,-12.3 13.57,-23.54 19.51,-33.5 5.94,-9.97 12.09,-18.25 18.24,-25.03 6.36,-7 12.72,-12.09 19.73,-15.69 6.78,-3.4 14.41,-5.31 23.11,-5.31 16.32,0 29.47,5.1 39.44,15.27 10.18,10.18 15.27,27.57 15.27,51.96 0,2.12 -1.91,7.85 -5.52,17.39 -3.81,9.54 -8.06,19.72 -12.72,30.75 -4.88,11.03 -9.32,21.21 -13.78,30.96 -4.24,9.76 -6.79,15.91 -7.64,18.45 -4.66,11.45 -8.48,24.61 -11.45,38.81 -3.18,14.21 -5.72,28.62 -7.63,42.84 -1.7,14.21 -2.97,27.99 -3.6,40.93 -0.64,13.14 -1.07,24.38 -1.07,33.92 0,31.82 6.37,56.84 19.09,74.87 12.51,18.02 30.11,27.14 52.38,27.14 15.48,0 32.02,-4.03 50.04,-11.87 18.03,-7.85 36.69,-18.46 56.2,-31.39 19.51,-13.15 39.24,-28.2 59.17,-45.38 19.73,-17.18 39.24,-35.2 58.11,-54.08 18.66,-18.88 36.69,-37.75 53.65,-57.05 16.96,-19.29 32.23,-37.54 46.02,-54.5 4.88,-5.72 10.39,-11.66 16.12,-17.6 5.72,-6.15 11.66,-11.45 17.6,-16.12 6.15,-4.87 11.66,-8.69 16.96,-11.87 5.09,-3.19 9.33,-4.67 12.73,-4.67 2.75,0 5.93,0.22 9.33,0.64 3.18,0.42 6.36,1.48 9.12,3.39 2.96,1.91 5.3,4.67 7.21,8.49 1.9,3.6 2.76,8.69 2.76,14.84z"/>
   <path class="fil0" d="M889.48 122.79c0,36.61 -67,85.62 -200.99,147.73 0,-36.61 10.78,-77.46 31.7,-122.89 24.83,-53.6 53.27,-80.4 84.97,-80.4 14.71,0 32.03,5.56 51.97,16.35 21.57,12.74 32.35,25.81 32.35,39.21zm366.69 213.09l-421.59 0c44.77,-10.79 87.59,-33.34 128.44,-67.32 9.47,-7.52 32.02,-31.7 66.99,-71.91 35.3,-40.52 56.54,-66.02 63.41,-77.13l-61.12 -22.88c-38.57,89.56 -71.89,144.79 -100,165.38 -70.92,52.28 -148.7,77.12 -233.03,73.86l-0.98 0c40.2,-10.13 88.24,-36.28 144.78,-78.44 65.04,-47.06 97.4,-86.93 97.4,-119.29 0,-32.68 -14.06,-58.82 -41.84,-78.44 -24.83,-17.32 -54.25,-25.81 -87.91,-25.81 -46.41,0 -83.34,23.52 -110.8,70.91 -21.57,38.24 -33.66,83.34 -36.27,134.98 -12.1,-49.02 -31.38,-91.83 -58.5,-128.1 -33.67,-46.75 -71.91,-69.95 -114.06,-69.95 -66.35,0 -99.68,27.13 -99.68,81.38 0,31.38 37.58,69.61 112.42,115.04 50.99,30.4 102.3,61.11 153.28,91.83 -68.96,-19.28 -170.92,-50.65 -305.57,-94.77 -44.12,-16.67 -83.02,-52.95 -116.03,-109.16l-46.08 70.92c62.1,46.74 137.27,79.42 226.16,98.04 81.7,13.73 163.41,27.46 244.46,40.86l-543.17 0 72.55 -56.87 75.17 0c-25.49,-16.33 -64.38,-40.52 -116.34,-71.9l70.92 -132.03c30.72,33.98 61.11,67.65 91.18,101.63 34.64,33.02 74.52,53.61 119.94,61.12 -45.42,-30.72 -68.31,-68.96 -68.31,-115.04 0,-35.29 13.08,-62.74 39.55,-82.68 22.88,-18.64 52.62,-27.79 89.22,-27.79 75.17,0 130.73,55.24 167.33,165.7 26.14,-115.69 77.14,-173.54 152.95,-173.54 42.16,0 78.44,11.45 109.16,34.32 33.01,25.16 49.68,57.84 49.68,98.69 0,51.98 -46.74,100.01 -140.54,144.79 56.22,-6.54 98.05,-32.36 124.85,-77.78 3.27,-5.88 22.55,-53.6 57.84,-143.15l116.68 50.66 -147.07 168.64 201.98 0.32 72.55 54.91zm-618.99 -66.34c-34.65,-14.71 -70.27,-37.59 -107.2,-68.64 -45.43,-37.59 -67.98,-69.93 -67.98,-96.41 0,-26.14 15.04,-39.22 45.1,-39.22 31.05,0 60.14,26.8 86.93,80.07 18.96,37.59 33.34,79.1 43.15,124.2zm711.16 1142.88l-617.69 0 -0.66 -985.03c-5.88,-16.67 -12.42,-35.3 -18.95,-56.21l588.27 0 49.03 41.17 0 1000.07zm-676.52 0l-674.55 0 0 -984.38 72.55 -56.86 596.11 0 5.89 49.01 0 992.23z"/>
  </g>
 </g>
</svg>
