<svg width="1700" height="1700" xmlns="http://www.w3.org/2000/svg">
 <defs>
  <style type="text/css">
   <![CDATA[
    .fil0 {fill:#D21D7E;fill-rule:nonzero}
   ]]>
  </style>
 </defs>
 <g>
  <title>background</title>
  <rect fill="none" id="canvas_background" height="1702" width="1702" y="-1" x="-1"/>
 </g>
 <g>
  <title>Layer 1</title>
  <g stroke="null" id="Слой_x0020_1">
   <metadata stroke="null" transform="translate(-20.005382537841797,-300.0807189941406) translate(-440.118408203125,-3180.855712890625) translate(-4961.33447265625,-2180.586669921875) translate(4221.1357421875,-620.1668090820312) translate(7.737478733062744,20.580089569091797) scale(1.2221059799194336,1.1278808116912842) translate(-7.737478733062744,-20.580089569091797) " id="CorelCorpID_0Corel-Layer"/>
   <path stroke="null" id="svg_1" d="m1098.112655,154.019668c0,41.291717 -81.881101,96.569155 -245.631081,166.621832c0,-41.291717 13.174302,-87.365648 38.74076,-138.605273c30.344891,-60.454412 65.101586,-90.681617 103.842345,-90.681617c17.977179,0 39.144055,6.271017 63.512848,18.440851c26.360826,14.369202 39.535128,29.110604 39.535128,44.224207zm448.134042,240.340122l-515.22766,0c54.713685,-12.169834 107.044263,-37.603546 156.967292,-75.928936c11.573344,-8.481664 39.131833,-35.753822 81.86888,-81.105909c43.140341,-45.70173 69.097872,-74.462691 77.49374,-86.993447l-74.695117,-25.805913c-47.136628,101.013005 -87.857199,163.305863 -122.210598,186.528929c-86.671756,58.965609 -181.727159,86.982168 -284.787357,83.305277l-1.197664,0c49.12866,-11.425433 107.838632,-40.919516 176.936504,-88.470971c79.485773,-53.078071 119.033122,-98.046679 119.033122,-134.544902c0,-36.859145 -17.18281,-66.341949 -51.132914,-88.470971c-30.344891,-19.534896 -66.299249,-29.110604 -107.435337,-29.110604c-56.717939,0 -101.850312,26.527757 -135.409343,79.978028c-26.360826,43.130162 -41.136087,93.997587 -44.325784,152.241352c-14.787482,-55.288717 -38.349686,-103.573295 -71.4932,-144.481532c-41.148308,-52.728428 -87.881641,-78.895263 -139.393408,-78.895263c-81.086732,0 -121.819524,30.599406 -121.819524,91.78694c0,35.3929 45.926743,78.511783 137.389154,129.751409c62.315184,34.287577 125.021442,68.924796 187.324405,103.573295c-84.276428,-21.745542 -208.882354,-57.127163 -373.438924,-106.889265c-53.919316,-18.801773 -101.459238,-59.721289 -141.800957,-123.119469l-56.314644,79.989307c75.892781,52.717149 167.758488,89.576294 276.391488,110.577435c99.846059,15.485804 199.704338,30.971607 298.756028,46.08521l-663.811305,0l88.663789,-64.142582l91.865707,0c-31.151481,-18.418294 -78.679183,-45.70173 -142.17981,-81.09463l86.671756,-148.914104c37.543096,38.32539 74.682896,76.301137 111.431623,114.626527c42.333751,37.242624 91.071338,60.46569 146.579391,68.936075c-55.508054,-34.648499 -83.482059,-77.778661 -83.482059,-129.751409c0,-39.802914 15.985146,-70.763242 48.334292,-93.253186c27.961785,-21.023698 64.307217,-31.343808 109.036296,-31.343808c91.865707,0 159.765915,62.304136 204.494994,186.88985c31.94585,-130.484531 94.273255,-195.732436 186.92111,-195.732436c51.523988,0 95.861993,12.914235 133.405089,38.708869c40.341718,28.377481 60.714225,65.236626 60.714225,111.310557c0,58.627245 -57.121234,112.79936 -171.754774,163.305863c68.706798,-7.376341 119.827491,-36.498223 152.579932,-87.72657c3.996287,-6.631939 27.55849,-60.454412 70.68661,-161.456138l142.595326,57.138442l-179.735126,190.20582l246.840966,0.360922l88.663789,61.931935zm-756.471381,-74.823613c-42.345972,-16.591127 -85.877387,-42.39704 -131.009761,-77.417739c-55.520275,-42.39704 -83.078765,-78.872705 -83.078765,-108.738989c0,-29.482804 18.380474,-44.235485 55.11698,-44.235485c37.946391,0 73.497454,30.227206 106.237673,90.309417c23.171129,42.39704 40.745013,89.215372 52.733873,140.082797zm869.112889,1289.032422l-754.882643,0l-0.80659,-1110.996436c-7.185983,-18.801773 -15.178556,-39.814193 -23.158908,-63.39818l718.928285,0l59.919856,46.434853l0,1127.959763zm-826.779138,0l-824.371589,0l0,-1110.263313l88.663789,-64.131303l728.509596,0l7.198204,55.277439l0,1119.117178z" class="fil0"/>
  </g>
 </g>
</svg>