<?xml version="1.0" encoding="UTF-8"?>
<!DOCTYPE svg PUBLIC "-//W3C//DTD SVG 1.1//EN" "http://www.w3.org/Graphics/SVG/1.1/DTD/svg11.dtd">
<!-- Creator: CorelDRAW 2020 (64-Bit) -->
<svg xmlns="http://www.w3.org/2000/svg" xml:space="preserve" width="132mm" height="268mm" version="1.1" style="shape-rendering:geometricPrecision; text-rendering:geometricPrecision; image-rendering:optimizeQuality; fill-rule:evenodd; clip-rule:evenodd"
viewBox="0 0 13200 26800"
 xmlns:xlink="http://www.w3.org/1999/xlink"
 xmlns:xodm="http://www.corel.com/coreldraw/odm/2003">
 <defs>
  <style type="text/css">
   <![CDATA[
    .str0 {stroke:#2B2A29;stroke-width:20;stroke-miterlimit:22.9256}
    .fil10 {fill:none}
    .fil5 {fill:#EBECEC}
    .fil6 {fill:#C5C6C6}
    .fil7 {fill:#5B5B5B}
    .fil4 {fill:#F9D8E9}
    .fil1 {fill:#BF196E}
    .fil0 {fill:#D21D7E}
    .fil3 {fill:#ADD0E7}
    .fil2 {fill:#0A94CD}
    .fil8 {fill:#FEFEFE;fill-rule:nonzero}
    .fil9 {fill:#2B2A29;fill-rule:nonzero}
   ]]>
  </style>
 </defs>
 <g id="Слой_x0020_1">
  <metadata id="CorelCorpID_0Corel-Layer"/>
  <g id="_362424864">
   <rect class="fil0 str0" x="2931.73" y="2930.05" width="6773.34" height="2046.12"/>
   <rect class="fil1 str0" x="3220.06" y="22256.18" width="6773.34" height="2046.12"/>
   <rect class="fil2 str0" x="2922.91" y="5664.13" width="6773.34" height="2046.12"/>
   <rect class="fil3 str0" x="3032.97" y="8349.49" width="6773.34" height="2046.12"/>
   <rect class="fil4 str0" x="3068.24" y="10960.06" width="6773.34" height="2046.12"/>
   <rect class="fil5 str0" x="3109.63" y="13735.28" width="6773.34" height="2046.12"/>
   <rect class="fil6 str0" x="3213.75" y="16472.17" width="6773.34" height="2046.12"/>
   <rect class="fil7 str0" x="3213.75" y="19435.5" width="6773.34" height="2046.12"/>
   <path class="fil8" d="M4337.05 3994.07l54.61 7.62c-6.04,37.57 -21.28,66.89 -45.94,88.16 -24.66,21.27 -55.03,31.86 -90.91,31.86 -44.98,0 -81.17,-14.72 -108.48,-44.14 -27.41,-29.42 -41.06,-71.54 -41.06,-126.36 0,-35.56 5.93,-66.57 17.67,-93.24 11.75,-26.57 29.64,-46.57 53.77,-59.8 24.02,-13.33 50.16,-20 78.53,-20 35.66,0 64.98,9 87.63,27.09 22.75,18.1 37.36,43.82 43.71,77.05l-53.98 8.25c-5.19,-22.11 -14.29,-38.73 -27.52,-49.95 -13.12,-11.11 -28.99,-16.72 -47.62,-16.72 -28.15,0 -51.01,10.05 -68.69,30.16 -17.57,20.22 -26.35,51.97 -26.35,95.57 0,44.24 8.47,76.31 25.4,96.31 17.04,20 39.16,30.05 66.36,30.05 22.01,0 40.32,-6.66 54.93,-20.1 14.71,-13.34 24.02,-33.98 27.94,-61.81z"/>
   <path id="1" class="fil8" d="M4608.72 4009.31l53.34 -4.45c4.55,25.19 13.22,43.4 26.03,54.72 12.81,11.32 29.21,17.04 49.32,17.04 17.14,0 32.17,-3.92 45.19,-11.85 13.02,-7.84 23.6,-18.31 31.75,-31.54 8.15,-13.13 15.03,-30.91 20.64,-53.24 5.61,-22.33 8.36,-45.08 8.36,-68.26 0,-2.43 -0.11,-6.24 -0.32,-11.22 -11.11,17.78 -26.35,32.28 -45.61,43.29 -19.27,11.11 -40.22,16.61 -62.66,16.61 -37.57,0 -69.32,-13.65 -95.35,-40.95 -25.93,-27.2 -38.95,-63.19 -38.95,-107.85 0,-46.14 13.55,-83.18 40.75,-111.33 27.09,-28.05 61.06,-42.13 102.02,-42.13 29.42,0 56.41,7.94 80.96,23.92 24.45,15.88 42.97,38.53 55.67,68.05 12.7,29.43 19.05,72.08 19.05,127.85 0,58.1 -6.24,104.35 -18.84,138.75 -12.59,34.5 -31.43,60.64 -56.3,78.63 -24.87,17.99 -53.98,26.99 -87.42,26.99 -35.56,0 -64.56,-9.84 -87.1,-29.63 -22.44,-19.79 -35.98,-47.63 -40.53,-83.4zm227.96 -200.55c0,-31.97 -8.47,-57.37 -25.4,-76.1 -16.83,-18.73 -37.36,-28.15 -61.49,-28.15 -24.98,0 -46.57,10.05 -64.77,30.27 -18.31,20.21 -27.41,46.46 -27.41,78.63 0,28.89 8.68,52.39 25.93,70.38 17.36,18.1 38.95,27.09 64.66,27.09 25.83,0 46.99,-8.99 63.61,-27.09 16.62,-17.99 24.87,-43.07 24.87,-75.03z"/>
   <path id="2" class="fil8" d="M5145.29 4114.72l0 -329.57 50.17 0 0 46.57c10.26,-16.09 24.02,-29.1 41.16,-38.84 17.15,-9.84 36.62,-14.71 58.53,-14.71 24.34,0 44.34,5.08 59.9,15.13 15.56,10.16 26.57,24.24 32.92,42.44 26.24,-38.41 60.22,-57.57 102.13,-57.57 32.8,0 58.1,9 75.67,27.09 17.67,18.1 26.56,45.93 26.56,83.51l0 225.95 -55.88 0 0 -207.43c0,-22.23 -1.9,-38.32 -5.5,-48.16 -3.6,-9.84 -10.16,-17.67 -19.79,-23.7 -9.53,-6.04 -20.75,-9 -33.55,-9 -23.29,0 -42.55,7.73 -57.89,23.07 -15.35,15.45 -22.97,40.11 -22.97,73.98l0 191.24 -55.88 0 0 -213.89c0,-24.76 -4.55,-43.39 -13.65,-55.77 -9.1,-12.39 -24.03,-18.63 -44.66,-18.63 -15.67,0 -30.17,4.13 -43.5,12.38 -13.34,8.26 -22.97,20.32 -29,36.3 -5.93,15.88 -8.89,38.84 -8.89,68.79l0 170.82 -55.88 0z"/>
   <path id="3" class="fil8" d="M5843.69 4009.31l53.34 -4.45c4.55,25.19 13.22,43.4 26.03,54.72 12.81,11.32 29.21,17.04 49.32,17.04 17.14,0 32.17,-3.92 45.19,-11.85 13.02,-7.84 23.6,-18.31 31.75,-31.54 8.15,-13.13 15.03,-30.91 20.64,-53.24 5.61,-22.33 8.36,-45.08 8.36,-68.26 0,-2.43 -0.11,-6.24 -0.32,-11.22 -11.11,17.78 -26.35,32.28 -45.61,43.29 -19.27,11.11 -40.22,16.61 -62.66,16.61 -37.57,0 -69.32,-13.65 -95.35,-40.95 -25.93,-27.2 -38.95,-63.19 -38.95,-107.85 0,-46.14 13.55,-83.18 40.75,-111.33 27.09,-28.05 61.06,-42.13 102.02,-42.13 29.42,0 56.41,7.94 80.96,23.92 24.45,15.88 42.97,38.53 55.67,68.05 12.7,29.43 19.05,72.08 19.05,127.85 0,58.1 -6.24,104.35 -18.84,138.75 -12.59,34.5 -31.43,60.64 -56.3,78.63 -24.87,17.99 -53.98,26.99 -87.42,26.99 -35.56,0 -64.56,-9.84 -87.1,-29.63 -22.44,-19.79 -35.98,-47.63 -40.53,-83.4zm227.96 -200.55c0,-31.97 -8.47,-57.37 -25.4,-76.1 -16.83,-18.73 -37.36,-28.15 -61.49,-28.15 -24.98,0 -46.57,10.05 -64.77,30.27 -18.31,20.21 -27.41,46.46 -27.41,78.63 0,28.89 8.68,52.39 25.93,70.38 17.36,18.1 38.95,27.09 64.66,27.09 25.83,0 46.99,-8.99 63.61,-27.09 16.62,-17.99 24.87,-43.07 24.87,-75.03z"/>
   <path id="4" class="fil8" d="M6274.64 3868.23c-23.17,-8.46 -40.32,-20.63 -51.54,-36.3 -11.11,-15.77 -16.72,-34.6 -16.72,-56.51 0,-33.13 11.85,-60.86 35.56,-83.4 23.81,-22.54 55.35,-33.87 94.83,-33.87 39.58,0 71.54,11.54 95.67,34.61 24.13,23.07 36.2,51.12 36.2,84.25 0,21.06 -5.51,39.47 -16.51,55.03 -11.01,15.66 -27.73,27.73 -50.28,36.19 27.84,9.11 48.9,23.71 63.4,44.03 14.5,20.21 21.8,44.34 21.8,72.5 0,38.84 -13.76,71.43 -41.17,97.89 -27.52,26.46 -63.6,39.69 -108.37,39.69 -44.77,0 -80.86,-13.23 -108.38,-39.79 -27.41,-26.57 -41.16,-59.69 -41.16,-99.38 0,-29.53 7.51,-54.29 22.54,-74.19 15.03,-20 36.4,-33.55 64.13,-40.75zm-11.11 -94.82c0,21.59 6.88,39.16 20.53,52.81 13.76,13.65 31.75,20.53 54.08,20.53 21.7,0 39.27,-6.77 52.92,-20.32 13.65,-13.55 20.43,-30.16 20.43,-49.85 0,-20.53 -6.99,-37.78 -21.07,-51.75 -13.97,-13.97 -31.64,-20.96 -52.91,-20.96 -21.49,0 -39.16,6.88 -53.13,20.54 -13.86,13.65 -20.85,29.95 -20.85,49zm-18.41 210.18c0,15.98 3.7,31.33 11.11,46.25 7.41,14.82 18.62,26.35 33.65,34.5 14.93,8.15 31.01,12.28 48.05,12.28 26.88,0 48.9,-8.57 66.15,-25.72 17.25,-17.14 25.82,-38.94 25.82,-65.4 0,-26.88 -8.89,-49.11 -26.56,-66.68 -17.78,-17.57 -40.22,-26.35 -67.21,-26.35 -26.46,0 -48.15,8.68 -65.3,26.03 -17.14,17.36 -25.71,39.06 -25.71,65.09z"/>
   <path id="5" class="fil8" d="M6730.89 4241.4l-6.35 -51.64c12.28,3.28 22.86,4.97 31.96,4.97 12.49,0 22.44,-2.12 29.85,-6.24 7.51,-4.13 13.65,-9.95 18.41,-17.36 3.49,-5.61 9.21,-19.47 17.04,-41.7 1.06,-3.07 2.65,-7.62 4.98,-13.65l-125.1 -330.63 59.69 0 68.79 190.29c9,24.03 16.94,49.43 24.03,76.1 6.45,-25.09 14.07,-49.85 22.96,-74.19l70.28 -192.2 55.77 0 -124.57 335.29c-13.44,36.08 -23.91,60.85 -31.43,74.5 -9.95,18.31 -21.38,31.75 -34.18,40.32 -12.91,8.58 -28.26,12.81 -46.04,12.81 -10.8,0 -22.86,-2.22 -36.09,-6.67z"/>
   <path id="6" class="fil8" d="M7421.66 4114.72l-55.88 0 0 -355.81c-13.44,12.91 -31.11,25.72 -52.92,38.52 -21.8,12.81 -41.48,22.44 -58.84,28.79l0 -53.98c31.22,-14.6 58.53,-32.38 81.92,-53.34 23.38,-20.85 40,-41.06 49.74,-60.75l35.98 0 0 456.57z"/>
   <polygon id="7" class="fil8" points="7757.15,4114.72 7757.15,3660.06 7813.03,3660.06 7813.03,3919.03 7945.11,3785.15 8017.29,3785.15 7891.56,3907.6 8029.99,4114.72 7961.2,4114.72 7851.77,3946.34 7813.03,3984.02 7813.03,4114.72 "/>
   <path id="8" class="fil8" d="M8414.06 4114.72l0 -108.59 -197.49 0 0 -51.43 207.65 -294.64 45.72 0 0 294.64 61.59 0 0 51.43 -61.59 0 0 108.59 -55.88 0zm0 -160.02l0 -204.58 -142.56 204.58 142.56 0z"/>
   <path class="fil8" d="M4328.23 6728.15l54.61 7.62c-6.04,37.57 -21.28,66.89 -45.94,88.16 -24.66,21.27 -55.03,31.86 -90.91,31.86 -44.98,0 -81.17,-14.72 -108.48,-44.14 -27.41,-29.42 -41.06,-71.54 -41.06,-126.36 0,-35.56 5.93,-66.57 17.67,-93.24 11.75,-26.57 29.64,-46.57 53.77,-59.8 24.02,-13.33 50.16,-20 78.53,-20 35.66,0 64.98,9 87.63,27.09 22.75,18.1 37.36,43.82 43.71,77.05l-53.98 8.25c-5.19,-22.11 -14.29,-38.73 -27.52,-49.95 -13.12,-11.11 -28.99,-16.72 -47.62,-16.72 -28.15,0 -51.01,10.05 -68.69,30.16 -17.57,20.22 -26.35,51.97 -26.35,95.57 0,44.24 8.47,76.31 25.4,96.31 17.04,20 39.16,30.05 66.36,30.05 22.01,0 40.32,-6.66 54.93,-20.1 14.71,-13.34 24.02,-33.98 27.94,-61.81z"/>
   <path id="1" class="fil8" d="M4594.82 6453.19l0 -53.34 294 0 0 43.18c-28.89,30.8 -57.68,71.76 -86.04,122.88 -28.47,51.11 -50.38,103.71 -65.94,157.79 -11.11,38 -18.31,79.8 -21.37,125.1l-57.15 0c0.63,-35.77 7.62,-79.06 21.06,-129.75 13.44,-50.8 32.59,-99.7 57.68,-146.79 25.08,-47.1 51.75,-86.79 80.01,-119.07l-222.25 0z"/>
   <path id="2" class="fil8" d="M4953.07 6743.39l53.34 -4.45c4.55,25.19 13.22,43.4 26.03,54.72 12.81,11.32 29.21,17.04 49.32,17.04 17.14,0 32.17,-3.92 45.19,-11.85 13.02,-7.84 23.6,-18.31 31.75,-31.54 8.15,-13.13 15.03,-30.91 20.64,-53.24 5.61,-22.33 8.36,-45.08 8.36,-68.26 0,-2.43 -0.11,-6.24 -0.32,-11.22 -11.11,17.78 -26.35,32.28 -45.61,43.29 -19.27,11.11 -40.22,16.61 -62.66,16.61 -37.57,0 -69.32,-13.65 -95.35,-40.95 -25.93,-27.2 -38.95,-63.19 -38.95,-107.85 0,-46.14 13.55,-83.18 40.75,-111.33 27.09,-28.05 61.06,-42.13 102.02,-42.13 29.42,0 56.41,7.94 80.96,23.92 24.45,15.88 42.97,38.53 55.67,68.05 12.7,29.43 19.05,72.08 19.05,127.85 0,58.1 -6.24,104.35 -18.84,138.75 -12.59,34.5 -31.43,60.64 -56.3,78.63 -24.87,17.99 -53.98,26.99 -87.42,26.99 -35.56,0 -64.56,-9.84 -87.1,-29.63 -22.44,-19.79 -35.98,-47.63 -40.53,-83.4zm227.96 -200.55c0,-31.97 -8.47,-57.37 -25.4,-76.1 -16.83,-18.73 -37.36,-28.15 -61.49,-28.15 -24.98,0 -46.57,10.05 -64.77,30.27 -18.31,20.21 -27.41,46.46 -27.41,78.63 0,28.89 8.68,52.39 25.93,70.38 17.36,18.1 38.95,27.09 64.66,27.09 25.83,0 46.99,-8.99 63.61,-27.09 16.62,-17.99 24.87,-43.07 24.87,-75.03z"/>
   <path id="3" class="fil8" d="M5489.64 6848.8l0 -329.57 50.17 0 0 46.57c10.26,-16.09 24.02,-29.1 41.16,-38.84 17.15,-9.84 36.62,-14.71 58.53,-14.71 24.34,0 44.34,5.08 59.9,15.13 15.56,10.16 26.57,24.24 32.92,42.44 26.24,-38.41 60.22,-57.57 102.13,-57.57 32.8,0 58.1,9 75.67,27.09 17.67,18.1 26.56,45.93 26.56,83.51l0 225.95 -55.88 0 0 -207.43c0,-22.23 -1.9,-38.32 -5.5,-48.16 -3.6,-9.84 -10.16,-17.67 -19.79,-23.7 -9.53,-6.04 -20.75,-9 -33.55,-9 -23.29,0 -42.55,7.73 -57.89,23.07 -15.35,15.45 -22.97,40.11 -22.97,73.98l0 191.24 -55.88 0 0 -213.89c0,-24.76 -4.55,-43.39 -13.65,-55.77 -9.1,-12.39 -24.03,-18.63 -44.66,-18.63 -15.67,0 -30.17,4.13 -43.5,12.38 -13.34,8.26 -22.97,20.32 -29,36.3 -5.93,15.88 -8.89,38.84 -8.89,68.79l0 170.82 -55.88 0z"/>
   <path id="4" class="fil8" d="M6472.52 6795.46l0 53.34 -300.99 0c-0.43,-13.44 1.79,-26.35 6.56,-38.84 7.72,-20.43 20.11,-40.64 37.14,-60.43 17.04,-19.79 41.39,-42.65 73.03,-68.58 49.21,-40.54 82.66,-72.6 100.12,-96.31 17.57,-23.71 26.35,-46.14 26.35,-67.31 0,-22.12 -7.94,-40.75 -23.81,-55.99 -15.88,-15.13 -36.62,-22.75 -62.13,-22.75 -26.98,0 -48.57,8.04 -64.77,24.13 -16.19,15.98 -24.34,38.21 -24.55,66.67l-57.15 -5.71c3.92,-42.76 18.73,-75.35 44.34,-97.79 25.72,-22.44 60.12,-33.66 103.4,-33.66 43.61,0 78.21,12.07 103.61,36.31 25.51,24.23 38.21,54.29 38.21,90.06 0,18.2 -3.7,36.09 -11.22,53.66 -7.41,17.67 -19.79,36.19 -37.04,55.67 -17.36,19.36 -46.04,46.14 -86.04,80.01 -33.55,28.15 -55.14,47.2 -64.67,57.25 -9.52,10.06 -17.35,20.11 -23.6,30.27l223.21 0z"/>
   <path id="5" class="fil8" d="M6532.95 6729.42l58.42 -4.45c4.34,28.47 14.39,49.85 30.06,64.25 15.66,14.28 34.82,21.48 57.36,21.48 27.2,0 49.95,-10.16 68.47,-30.37 18.42,-20.32 27.63,-47.21 27.63,-80.65 0,-31.86 -8.79,-56.94 -26.46,-75.35 -17.68,-18.42 -41.07,-27.63 -70.17,-27.63 -18.1,0 -34.29,4.13 -48.68,12.39 -14.29,8.25 -25.51,18.94 -33.76,32.06l-52.71 -7.62 43.82 -233.68 225.42 0 0 53.34 -180.87 0 -24.23 122.67c27.19,-19.16 55.77,-28.69 85.61,-28.69 39.59,0 73.03,13.76 100.23,41.28 27.2,27.52 40.85,62.86 40.85,106.04 0,41.17 -11.96,76.73 -35.88,106.68 -29.1,36.83 -68.89,55.25 -119.27,55.25 -41.28,0 -74.93,-11.64 -101.07,-34.82 -26.14,-23.18 -41.07,-53.87 -44.77,-92.18z"/>
   <path id="6" class="fil8" d="M7075.24 6975.48l-6.35 -51.64c12.28,3.28 22.86,4.97 31.96,4.97 12.49,0 22.44,-2.12 29.85,-6.24 7.51,-4.13 13.65,-9.95 18.41,-17.36 3.49,-5.61 9.21,-19.47 17.04,-41.7 1.06,-3.07 2.65,-7.62 4.98,-13.65l-125.1 -330.63 59.69 0 68.79 190.29c9,24.03 16.94,49.43 24.03,76.1 6.45,-25.09 14.07,-49.85 22.96,-74.19l70.28 -192.2 55.77 0 -124.57 335.29c-13.44,36.08 -23.91,60.85 -31.43,74.5 -9.95,18.31 -21.38,31.75 -34.18,40.32 -12.91,8.58 -28.26,12.81 -46.04,12.81 -10.8,0 -22.86,-2.22 -36.09,-6.67z"/>
   <path id="7" class="fil8" d="M7556.46 6728.15l55.88 -7.62c6.46,31.75 17.25,54.61 32.6,68.58 15.34,13.97 34.18,20.95 56.51,20.95 26.46,0 48.79,-9.1 66.78,-27.3 17.99,-18.2 26.99,-40.75 26.99,-67.63 0,-25.61 -8.36,-46.78 -25.19,-63.5 -16.72,-16.61 -37.99,-24.97 -63.92,-24.97 -10.58,0 -23.71,2.11 -39.48,6.24l6.25 -48.9c3.7,0.43 6.77,0.64 8.99,0.64 23.92,0 45.3,-6.24 64.46,-18.63 19.05,-12.38 28.57,-31.43 28.57,-57.15 0,-20.42 -6.98,-37.36 -20.85,-50.8 -13.86,-13.44 -31.75,-20.11 -53.66,-20.11 -21.8,0 -39.9,6.88 -54.39,20.64 -14.5,13.76 -23.82,34.4 -27.94,61.91l-55.88 -10.16c6.87,-37.46 22.33,-66.56 46.56,-87.2 24.13,-20.64 54.29,-30.91 90.28,-30.91 24.76,0 47.62,5.3 68.47,15.99 20.96,10.58 36.94,25.08 47.94,43.39 11.12,18.41 16.62,37.89 16.62,58.52 0,19.58 -5.29,37.36 -15.77,53.45 -10.58,16.09 -26.25,28.89 -46.88,38.42 26.88,6.13 47.73,19.05 62.65,38.63 14.82,19.47 22.23,44.02 22.23,73.34 0,39.69 -14.5,73.45 -43.4,101.07 -28.99,27.62 -65.61,41.38 -109.85,41.38 -39.9,0 -73.03,-11.96 -99.38,-35.77 -26.46,-23.81 -41.49,-54.61 -45.19,-92.5z"/>
   <polygon id="8" class="fil8" points="8101.5,6848.8 8101.5,6394.14 8157.38,6394.14 8157.38,6653.11 8289.46,6519.23 8361.64,6519.23 8235.91,6641.68 8374.34,6848.8 8305.55,6848.8 8196.12,6680.42 8157.38,6718.1 8157.38,6848.8 "/>
   <path id="9" class="fil8" d="M8579.97 6728.15l55.88 -7.62c6.46,31.75 17.25,54.61 32.6,68.58 15.34,13.97 34.18,20.95 56.51,20.95 26.46,0 48.79,-9.1 66.78,-27.3 17.99,-18.2 26.99,-40.75 26.99,-67.63 0,-25.61 -8.36,-46.78 -25.19,-63.5 -16.72,-16.61 -37.99,-24.97 -63.92,-24.97 -10.58,0 -23.71,2.11 -39.48,6.24l6.25 -48.9c3.7,0.43 6.77,0.64 8.99,0.64 23.92,0 45.3,-6.24 64.46,-18.63 19.05,-12.38 28.57,-31.43 28.57,-57.15 0,-20.42 -6.98,-37.36 -20.85,-50.8 -13.86,-13.44 -31.75,-20.11 -53.66,-20.11 -21.8,0 -39.9,6.88 -54.39,20.64 -14.5,13.76 -23.82,34.4 -27.94,61.91l-55.88 -10.16c6.87,-37.46 22.33,-66.56 46.56,-87.2 24.13,-20.64 54.29,-30.91 90.28,-30.91 24.76,0 47.62,5.3 68.47,15.99 20.96,10.58 36.94,25.08 47.94,43.39 11.12,18.41 16.62,37.89 16.62,58.52 0,19.58 -5.29,37.36 -15.77,53.45 -10.58,16.09 -26.25,28.89 -46.88,38.42 26.88,6.13 47.73,19.05 62.65,38.63 14.82,19.47 22.23,44.02 22.23,73.34 0,39.69 -14.5,73.45 -43.4,101.07 -28.99,27.62 -65.61,41.38 -109.85,41.38 -39.9,0 -73.03,-11.96 -99.38,-35.77 -26.46,-23.81 -41.49,-54.61 -45.19,-92.5z"/>
   <path class="fil9" d="M4438.29 9413.51l54.61 7.62c-6.04,37.57 -21.28,66.89 -45.94,88.16 -24.66,21.27 -55.03,31.86 -90.91,31.86 -44.98,0 -81.17,-14.72 -108.48,-44.14 -27.41,-29.42 -41.06,-71.54 -41.06,-126.36 0,-35.56 5.93,-66.57 17.67,-93.24 11.75,-26.57 29.64,-46.57 53.77,-59.8 24.02,-13.33 50.16,-20 78.53,-20 35.66,0 64.98,9 87.63,27.09 22.75,18.1 37.36,43.82 43.71,77.05l-53.98 8.25c-5.19,-22.11 -14.29,-38.73 -27.52,-49.95 -13.12,-11.11 -28.99,-16.72 -47.62,-16.72 -28.15,0 -51.01,10.05 -68.69,30.16 -17.57,20.22 -26.35,51.97 -26.35,95.57 0,44.24 8.47,76.31 25.4,96.31 17.04,20 39.16,30.05 66.36,30.05 22.01,0 40.32,-6.66 54.93,-20.1 14.71,-13.34 24.02,-33.98 27.94,-61.81z"/>
   <path id="1" class="fil9" d="M4701.7 9413.51l55.88 -7.62c6.46,31.75 17.25,54.61 32.6,68.58 15.34,13.97 34.18,20.95 56.51,20.95 26.46,0 48.79,-9.1 66.78,-27.3 17.99,-18.2 26.99,-40.75 26.99,-67.63 0,-25.61 -8.36,-46.78 -25.19,-63.5 -16.72,-16.61 -37.99,-24.97 -63.92,-24.97 -10.58,0 -23.71,2.11 -39.48,6.24l6.25 -48.9c3.7,0.43 6.77,0.64 8.99,0.64 23.92,0 45.3,-6.24 64.46,-18.63 19.05,-12.38 28.57,-31.43 28.57,-57.15 0,-20.42 -6.98,-37.36 -20.85,-50.8 -13.86,-13.44 -31.75,-20.11 -53.66,-20.11 -21.8,0 -39.9,6.88 -54.39,20.64 -14.5,13.76 -23.82,34.4 -27.94,61.91l-55.88 -10.16c6.87,-37.46 22.33,-66.56 46.56,-87.2 24.13,-20.64 54.29,-30.91 90.28,-30.91 24.76,0 47.62,5.3 68.47,15.99 20.96,10.58 36.94,25.08 47.94,43.39 11.12,18.41 16.62,37.89 16.62,58.52 0,19.58 -5.29,37.36 -15.77,53.45 -10.58,16.09 -26.25,28.89 -46.88,38.42 26.88,6.13 47.73,19.05 62.65,38.63 14.82,19.47 22.23,44.02 22.23,73.34 0,39.69 -14.5,73.45 -43.4,101.07 -28.99,27.62 -65.61,41.38 -109.85,41.38 -39.9,0 -73.03,-11.96 -99.38,-35.77 -26.46,-23.81 -41.49,-54.61 -45.19,-92.5z"/>
   <path id="2" class="fil9" d="M5345.07 9190.62l-55.25 4.45c-4.97,-21.91 -12.06,-37.89 -21.27,-47.84 -15.14,-15.98 -33.87,-23.92 -56.09,-23.92 -17.89,0 -33.76,4.98 -47.42,14.93 -17.57,12.8 -31.32,31.43 -41.59,55.98 -10.16,24.66 -15.45,59.69 -15.87,105.1 13.44,-20.43 29.95,-35.67 49.42,-45.51 19.47,-9.95 39.79,-14.93 61.17,-14.93 37.25,0 69,13.76 95.25,41.17 26.14,27.41 39.27,62.76 39.27,106.26 0,28.58 -6.14,55.03 -18.42,79.59 -12.38,24.55 -29.21,43.28 -50.8,56.3 -21.48,13.02 -45.93,19.58 -73.24,19.58 -46.46,0 -84.45,-17.15 -113.87,-51.33 -29.32,-34.18 -44.03,-90.59 -44.03,-169.12 0,-87.84 16.3,-151.77 48.79,-191.67 28.36,-34.71 66.57,-52.07 114.72,-52.07 35.77,0 65.2,10.06 88.06,30.06 22.86,20 36.61,47.63 41.17,82.97zm-228.6 196.22c0,19.26 4.12,37.68 12.27,55.24 8.15,17.57 19.58,30.91 34.08,40.12 14.61,9.2 30.06,13.86 46.46,13.86 23.81,0 44.13,-9.53 60.96,-28.58 16.83,-19.05 25.3,-44.87 25.3,-77.57 0,-31.43 -8.37,-56.2 -24.98,-74.3 -16.62,-18.09 -37.78,-27.2 -63.5,-27.2 -25.19,0 -46.67,9.11 -64.24,27.2 -17.57,18.1 -26.35,41.81 -26.35,71.23z"/>
   <path id="3" class="fil9" d="M5599.7 9534.16l0 -329.57 50.17 0 0 46.57c10.26,-16.09 24.02,-29.1 41.16,-38.84 17.15,-9.84 36.62,-14.71 58.53,-14.71 24.34,0 44.34,5.08 59.9,15.13 15.56,10.16 26.57,24.24 32.92,42.44 26.24,-38.41 60.22,-57.57 102.13,-57.57 32.8,0 58.1,9 75.67,27.09 17.67,18.1 26.56,45.93 26.56,83.51l0 225.95 -55.88 0 0 -207.43c0,-22.23 -1.9,-38.32 -5.5,-48.16 -3.6,-9.84 -10.16,-17.67 -19.79,-23.7 -9.53,-6.04 -20.75,-9 -33.55,-9 -23.29,0 -42.55,7.73 -57.89,23.07 -15.35,15.45 -22.97,40.11 -22.97,73.98l0 191.24 -55.88 0 0 -213.89c0,-24.76 -4.55,-43.39 -13.65,-55.77 -9.1,-12.39 -24.03,-18.63 -44.66,-18.63 -15.67,0 -30.17,4.13 -43.5,12.38 -13.34,8.26 -22.97,20.32 -29,36.3 -5.93,15.88 -8.89,38.84 -8.89,68.79l0 170.82 -55.88 0z"/>
   <path id="4" class="fil9" d="M6298.1 9428.75l53.34 -4.45c4.55,25.19 13.22,43.4 26.03,54.72 12.81,11.32 29.21,17.04 49.32,17.04 17.14,0 32.17,-3.92 45.19,-11.85 13.02,-7.84 23.6,-18.31 31.75,-31.54 8.15,-13.13 15.03,-30.91 20.64,-53.24 5.61,-22.33 8.36,-45.08 8.36,-68.26 0,-2.43 -0.11,-6.24 -0.32,-11.22 -11.11,17.78 -26.35,32.28 -45.61,43.29 -19.27,11.11 -40.22,16.61 -62.66,16.61 -37.57,0 -69.32,-13.65 -95.35,-40.95 -25.93,-27.2 -38.95,-63.19 -38.95,-107.85 0,-46.14 13.55,-83.18 40.75,-111.33 27.09,-28.05 61.06,-42.13 102.02,-42.13 29.42,0 56.41,7.94 80.96,23.92 24.45,15.88 42.97,38.53 55.67,68.05 12.7,29.43 19.05,72.08 19.05,127.85 0,58.1 -6.24,104.35 -18.84,138.75 -12.59,34.5 -31.43,60.64 -56.3,78.63 -24.87,17.99 -53.98,26.99 -87.42,26.99 -35.56,0 -64.56,-9.84 -87.1,-29.63 -22.44,-19.79 -35.98,-47.63 -40.53,-83.4zm227.96 -200.55c0,-31.97 -8.47,-57.37 -25.4,-76.1 -16.83,-18.73 -37.36,-28.15 -61.49,-28.15 -24.98,0 -46.57,10.05 -64.77,30.27 -18.31,20.21 -27.41,46.46 -27.41,78.63 0,28.89 8.68,52.39 25.93,70.38 17.36,18.1 38.95,27.09 64.66,27.09 25.83,0 46.99,-8.99 63.61,-27.09 16.62,-17.99 24.87,-43.07 24.87,-75.03z"/>
   <path id="5" class="fil9" d="M6832.13 9660.84l-6.35 -51.64c12.28,3.28 22.86,4.97 31.96,4.97 12.49,0 22.44,-2.12 29.85,-6.24 7.51,-4.13 13.65,-9.95 18.41,-17.36 3.49,-5.61 9.21,-19.47 17.04,-41.7 1.06,-3.07 2.65,-7.62 4.98,-13.65l-125.1 -330.63 59.69 0 68.79 190.29c9,24.03 16.94,49.43 24.03,76.1 6.45,-25.09 14.07,-49.85 22.96,-74.19l70.28 -192.2 55.77 0 -124.57 335.29c-13.44,36.08 -23.91,60.85 -31.43,74.5 -9.95,18.31 -21.38,31.75 -34.18,40.32 -12.91,8.58 -28.26,12.81 -46.04,12.81 -10.8,0 -22.86,-2.22 -36.09,-6.67z"/>
   <path id="6" class="fil9" d="M7313.35 9414.78l58.42 -4.45c4.34,28.47 14.39,49.85 30.06,64.25 15.66,14.28 34.82,21.48 57.36,21.48 27.2,0 49.95,-10.16 68.47,-30.37 18.42,-20.32 27.63,-47.21 27.63,-80.65 0,-31.86 -8.79,-56.94 -26.46,-75.35 -17.68,-18.42 -41.07,-27.63 -70.17,-27.63 -18.1,0 -34.29,4.13 -48.68,12.39 -14.29,8.25 -25.51,18.94 -33.76,32.06l-52.71 -7.62 43.82 -233.68 225.42 0 0 53.34 -180.87 0 -24.23 122.67c27.19,-19.16 55.77,-28.69 85.61,-28.69 39.59,0 73.03,13.76 100.23,41.28 27.2,27.52 40.85,62.86 40.85,106.04 0,41.17 -11.96,76.73 -35.88,106.68 -29.1,36.83 -68.89,55.25 -119.27,55.25 -41.28,0 -74.93,-11.64 -101.07,-34.82 -26.14,-23.18 -41.07,-53.87 -44.77,-92.18z"/>
   <polygon id="7" class="fil9" points="7858.39,9534.16 7858.39,9079.5 7914.27,9079.5 7914.27,9338.47 8046.35,9204.59 8118.53,9204.59 7992.8,9327.04 8131.23,9534.16 8062.44,9534.16 7953.01,9365.78 7914.27,9403.46 7914.27,9534.16 "/>
   <path id="8" class="fil9" d="M8336.86 9309.79c0,-53.65 5.5,-97.05 16.51,-129.85 11.11,-32.92 27.52,-58.21 49.32,-75.89 21.69,-17.67 49.11,-26.46 82.13,-26.46 24.34,0 45.72,4.87 64.24,14.72 18.41,9.84 33.65,24.02 45.5,42.54 11.86,18.42 21.17,40.96 27.94,67.52 6.88,26.57 10.27,62.44 10.27,107.42 0,53.34 -5.5,96.52 -16.4,129.33 -10.9,32.92 -27.31,58.21 -49.11,75.99 -21.7,17.78 -49.21,26.67 -82.44,26.67 -43.71,0 -78.11,-15.56 -103.09,-46.78 -29.95,-38.1 -44.87,-99.8 -44.87,-185.21zm57.15 0.21c0,74.83 8.68,124.57 26.14,149.12 17.46,24.66 39.05,36.94 64.67,36.94 25.61,0 47.2,-12.38 64.66,-37.04 17.46,-24.77 26.14,-74.4 26.14,-149.02 0,-74.82 -8.68,-124.56 -26.14,-149.11 -17.36,-24.66 -39.16,-36.94 -65.3,-36.94 -25.61,0 -46.14,10.9 -61.49,32.6 -19.15,27.62 -28.68,78.84 -28.68,153.45z"/>
   <path class="fil9" d="M4650.14 12024.08l54.61 7.62c-6.04,37.57 -21.28,66.89 -45.94,88.16 -24.66,21.27 -55.03,31.86 -90.91,31.86 -44.98,0 -81.17,-14.72 -108.48,-44.14 -27.41,-29.42 -41.06,-71.54 -41.06,-126.36 0,-35.56 5.93,-66.57 17.67,-93.24 11.75,-26.57 29.64,-46.57 53.77,-59.8 24.02,-13.33 50.16,-20 78.53,-20 35.66,0 64.98,9 87.63,27.09 22.75,18.1 37.36,43.82 43.71,77.05l-53.98 8.25c-5.19,-22.11 -14.29,-38.73 -27.52,-49.95 -13.12,-11.11 -28.99,-16.72 -47.62,-16.72 -28.15,0 -51.01,10.05 -68.69,30.16 -17.57,20.22 -26.35,51.97 -26.35,95.57 0,44.24 8.47,76.31 25.4,96.31 17.04,20 39.16,30.05 66.36,30.05 22.01,0 40.32,-6.66 54.93,-20.1 14.71,-13.34 24.02,-33.98 27.94,-61.81z"/>
   <path id="1" class="fil9" d="M4913.55 11920.36c0,-53.65 5.5,-97.05 16.51,-129.85 11.11,-32.92 27.52,-58.21 49.32,-75.89 21.69,-17.67 49.11,-26.46 82.13,-26.46 24.34,0 45.72,4.87 64.24,14.72 18.41,9.84 33.65,24.02 45.5,42.54 11.86,18.42 21.17,40.96 27.94,67.52 6.88,26.57 10.27,62.44 10.27,107.42 0,53.34 -5.5,96.52 -16.4,129.33 -10.9,32.92 -27.31,58.21 -49.11,75.99 -21.7,17.78 -49.21,26.67 -82.44,26.67 -43.71,0 -78.11,-15.56 -103.09,-46.78 -29.95,-38.1 -44.87,-99.8 -44.87,-185.21zm57.15 0.21c0,74.83 8.68,124.57 26.14,149.12 17.46,24.66 39.05,36.94 64.67,36.94 25.61,0 47.2,-12.38 64.66,-37.04 17.46,-24.77 26.14,-74.4 26.14,-149.02 0,-74.82 -8.68,-124.56 -26.14,-149.11 -17.36,-24.66 -39.16,-36.94 -65.3,-36.94 -25.61,0 -46.14,10.9 -61.49,32.6 -19.15,27.62 -28.68,78.84 -28.68,153.45z"/>
   <path id="2" class="fil9" d="M5458.38 12144.73l0 -329.57 50.17 0 0 46.57c10.26,-16.09 24.02,-29.1 41.16,-38.84 17.15,-9.84 36.62,-14.71 58.53,-14.71 24.34,0 44.34,5.08 59.9,15.13 15.56,10.16 26.57,24.24 32.92,42.44 26.24,-38.41 60.22,-57.57 102.13,-57.57 32.8,0 58.1,9 75.67,27.09 17.67,18.1 26.56,45.93 26.56,83.51l0 225.95 -55.88 0 0 -207.43c0,-22.23 -1.9,-38.32 -5.5,-48.16 -3.6,-9.84 -10.16,-17.67 -19.79,-23.7 -9.53,-6.04 -20.75,-9 -33.55,-9 -23.29,0 -42.55,7.73 -57.89,23.07 -15.35,15.45 -22.97,40.11 -22.97,73.98l0 191.24 -55.88 0 0 -213.89c0,-24.76 -4.55,-43.39 -13.65,-55.77 -9.1,-12.39 -24.03,-18.63 -44.66,-18.63 -15.67,0 -30.17,4.13 -43.5,12.38 -13.34,8.26 -22.97,20.32 -29,36.3 -5.93,15.88 -8.89,38.84 -8.89,68.79l0 170.82 -55.88 0z"/>
   <path id="3" class="fil9" d="M6441.26 12091.39l0 53.34 -300.99 0c-0.43,-13.44 1.79,-26.35 6.56,-38.84 7.72,-20.43 20.11,-40.64 37.14,-60.43 17.04,-19.79 41.39,-42.65 73.03,-68.58 49.21,-40.54 82.66,-72.6 100.12,-96.31 17.57,-23.71 26.35,-46.14 26.35,-67.31 0,-22.12 -7.94,-40.75 -23.81,-55.99 -15.88,-15.13 -36.62,-22.75 -62.13,-22.75 -26.98,0 -48.57,8.04 -64.77,24.13 -16.19,15.98 -24.34,38.21 -24.55,66.67l-57.15 -5.71c3.92,-42.76 18.73,-75.35 44.34,-97.79 25.72,-22.44 60.12,-33.66 103.4,-33.66 43.61,0 78.21,12.07 103.61,36.31 25.51,24.23 38.21,54.29 38.21,90.06 0,18.2 -3.7,36.09 -11.22,53.66 -7.41,17.67 -19.79,36.19 -37.04,55.67 -17.36,19.36 -46.04,46.14 -86.04,80.01 -33.55,28.15 -55.14,47.2 -64.67,57.25 -9.52,10.06 -17.35,20.11 -23.6,30.27l223.21 0z"/>
   <path id="4" class="fil9" d="M6794.43 12091.39l0 53.34 -300.99 0c-0.43,-13.44 1.79,-26.35 6.56,-38.84 7.72,-20.43 20.11,-40.64 37.14,-60.43 17.04,-19.79 41.39,-42.65 73.03,-68.58 49.21,-40.54 82.66,-72.6 100.12,-96.31 17.57,-23.71 26.35,-46.14 26.35,-67.31 0,-22.12 -7.94,-40.75 -23.81,-55.99 -15.88,-15.13 -36.62,-22.75 -62.13,-22.75 -26.98,0 -48.57,8.04 -64.77,24.13 -16.19,15.98 -24.34,38.21 -24.55,66.67l-57.15 -5.71c3.92,-42.76 18.73,-75.35 44.34,-97.79 25.72,-22.44 60.12,-33.66 103.4,-33.66 43.61,0 78.21,12.07 103.61,36.31 25.51,24.23 38.21,54.29 38.21,90.06 0,18.2 -3.7,36.09 -11.22,53.66 -7.41,17.67 -19.79,36.19 -37.04,55.67 -17.36,19.36 -46.04,46.14 -86.04,80.01 -33.55,28.15 -55.14,47.2 -64.67,57.25 -9.52,10.06 -17.35,20.11 -23.6,30.27l223.21 0z"/>
   <path id="5" class="fil9" d="M7043.98 12271.41l-6.35 -51.64c12.28,3.28 22.86,4.97 31.96,4.97 12.49,0 22.44,-2.12 29.85,-6.24 7.51,-4.13 13.65,-9.95 18.41,-17.36 3.49,-5.61 9.21,-19.47 17.04,-41.7 1.06,-3.07 2.65,-7.62 4.98,-13.65l-125.1 -330.63 59.69 0 68.79 190.29c9,24.03 16.94,49.43 24.03,76.1 6.45,-25.09 14.07,-49.85 22.96,-74.19l70.28 -192.2 55.77 0 -124.57 335.29c-13.44,36.08 -23.91,60.85 -31.43,74.5 -9.95,18.31 -21.38,31.75 -34.18,40.32 -12.91,8.58 -28.26,12.81 -46.04,12.81 -10.8,0 -22.86,-2.22 -36.09,-6.67z"/>
   <path id="6" class="fil9" d="M7525.2 11920.36c0,-53.65 5.5,-97.05 16.51,-129.85 11.11,-32.92 27.52,-58.21 49.32,-75.89 21.69,-17.67 49.11,-26.46 82.13,-26.46 24.34,0 45.72,4.87 64.24,14.72 18.41,9.84 33.65,24.02 45.5,42.54 11.86,18.42 21.17,40.96 27.94,67.52 6.88,26.57 10.27,62.44 10.27,107.42 0,53.34 -5.5,96.52 -16.4,129.33 -10.9,32.92 -27.31,58.21 -49.11,75.99 -21.7,17.78 -49.21,26.67 -82.44,26.67 -43.71,0 -78.11,-15.56 -103.09,-46.78 -29.95,-38.1 -44.87,-99.8 -44.87,-185.21zm57.15 0.21c0,74.83 8.68,124.57 26.14,149.12 17.46,24.66 39.05,36.94 64.67,36.94 25.61,0 47.2,-12.38 64.66,-37.04 17.46,-24.77 26.14,-74.4 26.14,-149.02 0,-74.82 -8.68,-124.56 -26.14,-149.11 -17.36,-24.66 -39.16,-36.94 -65.3,-36.94 -25.61,0 -46.14,10.9 -61.49,32.6 -19.15,27.62 -28.68,78.84 -28.68,153.45z"/>
   <polygon id="7" class="fil9" points="8070.24,12144.73 8070.24,11690.07 8126.12,11690.07 8126.12,11949.04 8258.2,11815.16 8330.38,11815.16 8204.65,11937.61 8343.08,12144.73 8274.29,12144.73 8164.86,11976.35 8126.12,12014.03 8126.12,12144.73 "/>
   <path id="8" class="fil9" d="M8548.71 11920.36c0,-53.65 5.5,-97.05 16.51,-129.85 11.11,-32.92 27.52,-58.21 49.32,-75.89 21.69,-17.67 49.11,-26.46 82.13,-26.46 24.34,0 45.72,4.87 64.24,14.72 18.41,9.84 33.65,24.02 45.5,42.54 11.86,18.42 21.17,40.96 27.94,67.52 6.88,26.57 10.27,62.44 10.27,107.42 0,53.34 -5.5,96.52 -16.4,129.33 -10.9,32.92 -27.31,58.21 -49.11,75.99 -21.7,17.78 -49.21,26.67 -82.44,26.67 -43.71,0 -78.11,-15.56 -103.09,-46.78 -29.95,-38.1 -44.87,-99.8 -44.87,-185.21zm57.15 0.21c0,74.83 8.68,124.57 26.14,149.12 17.46,24.66 39.05,36.94 64.67,36.94 25.61,0 47.2,-12.38 64.66,-37.04 17.46,-24.77 26.14,-74.4 26.14,-149.02 0,-74.82 -8.68,-124.56 -26.14,-149.11 -17.36,-24.66 -39.16,-36.94 -65.3,-36.94 -25.61,0 -46.14,10.9 -61.49,32.6 -19.15,27.62 -28.68,78.84 -28.68,153.45z"/>
   <path class="fil9" d="M4691.53 14799.3l54.61 7.62c-6.04,37.57 -21.28,66.89 -45.94,88.16 -24.66,21.27 -55.03,31.86 -90.91,31.86 -44.98,0 -81.17,-14.72 -108.48,-44.14 -27.41,-29.42 -41.06,-71.54 -41.06,-126.36 0,-35.56 5.93,-66.57 17.67,-93.24 11.75,-26.57 29.64,-46.57 53.77,-59.8 24.02,-13.33 50.16,-20 78.53,-20 35.66,0 64.98,9 87.63,27.09 22.75,18.1 37.36,43.82 43.71,77.05l-53.98 8.25c-5.19,-22.11 -14.29,-38.73 -27.52,-49.95 -13.12,-11.11 -28.99,-16.72 -47.62,-16.72 -28.15,0 -51.01,10.05 -68.69,30.16 -17.57,20.22 -26.35,51.97 -26.35,95.57 0,44.24 8.47,76.31 25.4,96.31 17.04,20 39.16,30.05 66.36,30.05 22.01,0 40.32,-6.66 54.93,-20.1 14.71,-13.34 24.02,-33.98 27.94,-61.81z"/>
   <path id="1" class="fil9" d="M4954.94 14695.58c0,-53.65 5.5,-97.05 16.51,-129.85 11.11,-32.92 27.52,-58.21 49.32,-75.89 21.69,-17.67 49.11,-26.46 82.13,-26.46 24.34,0 45.72,4.87 64.24,14.72 18.41,9.84 33.65,24.02 45.5,42.54 11.86,18.42 21.17,40.96 27.94,67.52 6.88,26.57 10.27,62.44 10.27,107.42 0,53.34 -5.5,96.52 -16.4,129.33 -10.9,32.92 -27.31,58.21 -49.11,75.99 -21.7,17.78 -49.21,26.67 -82.44,26.67 -43.71,0 -78.11,-15.56 -103.09,-46.78 -29.95,-38.1 -44.87,-99.8 -44.87,-185.21zm57.15 0.21c0,74.83 8.68,124.57 26.14,149.12 17.46,24.66 39.05,36.94 64.67,36.94 25.61,0 47.2,-12.38 64.66,-37.04 17.46,-24.77 26.14,-74.4 26.14,-149.02 0,-74.82 -8.68,-124.56 -26.14,-149.11 -17.36,-24.66 -39.16,-36.94 -65.3,-36.94 -25.61,0 -46.14,10.9 -61.49,32.6 -19.15,27.62 -28.68,78.84 -28.68,153.45z"/>
   <path id="2" class="fil9" d="M5499.77 14919.95l0 -329.57 50.17 0 0 46.57c10.26,-16.09 24.02,-29.1 41.16,-38.84 17.15,-9.84 36.62,-14.71 58.53,-14.71 24.34,0 44.34,5.08 59.9,15.13 15.56,10.16 26.57,24.24 32.92,42.44 26.24,-38.41 60.22,-57.57 102.13,-57.57 32.8,0 58.1,9 75.67,27.09 17.67,18.1 26.56,45.93 26.56,83.51l0 225.95 -55.88 0 0 -207.43c0,-22.23 -1.9,-38.32 -5.5,-48.16 -3.6,-9.84 -10.16,-17.67 -19.79,-23.7 -9.53,-6.04 -20.75,-9 -33.55,-9 -23.29,0 -42.55,7.73 -57.89,23.07 -15.35,15.45 -22.97,40.11 -22.97,73.98l0 191.24 -55.88 0 0 -213.89c0,-24.76 -4.55,-43.39 -13.65,-55.77 -9.1,-12.39 -24.03,-18.63 -44.66,-18.63 -15.67,0 -30.17,4.13 -43.5,12.38 -13.34,8.26 -22.97,20.32 -29,36.3 -5.93,15.88 -8.89,38.84 -8.89,68.79l0 170.82 -55.88 0z"/>
   <path id="3" class="fil9" d="M6189.91 14695.58c0,-53.65 5.5,-97.05 16.51,-129.85 11.11,-32.92 27.52,-58.21 49.32,-75.89 21.69,-17.67 49.11,-26.46 82.13,-26.46 24.34,0 45.72,4.87 64.24,14.72 18.41,9.84 33.65,24.02 45.5,42.54 11.86,18.42 21.17,40.96 27.94,67.52 6.88,26.57 10.27,62.44 10.27,107.42 0,53.34 -5.5,96.52 -16.4,129.33 -10.9,32.92 -27.31,58.21 -49.11,75.99 -21.7,17.78 -49.21,26.67 -82.44,26.67 -43.71,0 -78.11,-15.56 -103.09,-46.78 -29.95,-38.1 -44.87,-99.8 -44.87,-185.21zm57.15 0.21c0,74.83 8.68,124.57 26.14,149.12 17.46,24.66 39.05,36.94 64.67,36.94 25.61,0 47.2,-12.38 64.66,-37.04 17.46,-24.77 26.14,-74.4 26.14,-149.02 0,-74.82 -8.68,-124.56 -26.14,-149.11 -17.36,-24.66 -39.16,-36.94 -65.3,-36.94 -25.61,0 -46.14,10.9 -61.49,32.6 -19.15,27.62 -28.68,78.84 -28.68,153.45z"/>
   <path id="4" class="fil9" d="M6908.62 15046.63l-6.35 -51.64c12.28,3.28 22.86,4.97 31.96,4.97 12.49,0 22.44,-2.12 29.85,-6.24 7.51,-4.13 13.65,-9.95 18.41,-17.36 3.49,-5.61 9.21,-19.47 17.04,-41.7 1.06,-3.07 2.65,-7.62 4.98,-13.65l-125.1 -330.63 59.69 0 68.79 190.29c9,24.03 16.94,49.43 24.03,76.1 6.45,-25.09 14.07,-49.85 22.96,-74.19l70.28 -192.2 55.77 0 -124.57 335.29c-13.44,36.08 -23.91,60.85 -31.43,74.5 -9.95,18.31 -21.38,31.75 -34.18,40.32 -12.91,8.58 -28.26,12.81 -46.04,12.81 -10.8,0 -22.86,-2.22 -36.09,-6.67z"/>
   <path id="5" class="fil9" d="M7389.84 14695.58c0,-53.65 5.5,-97.05 16.51,-129.85 11.11,-32.92 27.52,-58.21 49.32,-75.89 21.69,-17.67 49.11,-26.46 82.13,-26.46 24.34,0 45.72,4.87 64.24,14.72 18.41,9.84 33.65,24.02 45.5,42.54 11.86,18.42 21.17,40.96 27.94,67.52 6.88,26.57 10.27,62.44 10.27,107.42 0,53.34 -5.5,96.52 -16.4,129.33 -10.9,32.92 -27.31,58.21 -49.11,75.99 -21.7,17.78 -49.21,26.67 -82.44,26.67 -43.71,0 -78.11,-15.56 -103.09,-46.78 -29.95,-38.1 -44.87,-99.8 -44.87,-185.21zm57.15 0.21c0,74.83 8.68,124.57 26.14,149.12 17.46,24.66 39.05,36.94 64.67,36.94 25.61,0 47.2,-12.38 64.66,-37.04 17.46,-24.77 26.14,-74.4 26.14,-149.02 0,-74.82 -8.68,-124.56 -26.14,-149.11 -17.36,-24.66 -39.16,-36.94 -65.3,-36.94 -25.61,0 -46.14,10.9 -61.49,32.6 -19.15,27.62 -28.68,78.84 -28.68,153.45z"/>
   <polygon id="6" class="fil9" points="7934.88,14919.95 7934.88,14465.29 7990.76,14465.29 7990.76,14724.26 8122.84,14590.38 8195.02,14590.38 8069.29,14712.83 8207.72,14919.95 8138.93,14919.95 8029.5,14751.57 7990.76,14789.25 7990.76,14919.95 "/>
   <path id="7" class="fil9" d="M8622.9 14919.95l-55.88 0 0 -355.81c-13.44,12.91 -31.11,25.72 -52.92,38.52 -21.8,12.81 -41.48,22.44 -58.84,28.79l0 -53.98c31.22,-14.6 58.53,-32.38 81.92,-53.34 23.38,-20.85 40,-41.06 49.74,-60.75l35.98 0 0 456.57z"/>
   <path id="8" class="fil9" d="M8766.52 14695.58c0,-53.65 5.5,-97.05 16.51,-129.85 11.11,-32.92 27.52,-58.21 49.32,-75.89 21.69,-17.67 49.11,-26.46 82.13,-26.46 24.34,0 45.72,4.87 64.24,14.72 18.41,9.84 33.65,24.02 45.5,42.54 11.86,18.42 21.17,40.96 27.94,67.52 6.88,26.57 10.27,62.44 10.27,107.42 0,53.34 -5.5,96.52 -16.4,129.33 -10.9,32.92 -27.31,58.21 -49.11,75.99 -21.7,17.78 -49.21,26.67 -82.44,26.67 -43.71,0 -78.11,-15.56 -103.09,-46.78 -29.95,-38.1 -44.87,-99.8 -44.87,-185.21zm57.15 0.21c0,74.83 8.68,124.57 26.14,149.12 17.46,24.66 39.05,36.94 64.67,36.94 25.61,0 47.2,-12.38 64.66,-37.04 17.46,-24.77 26.14,-74.4 26.14,-149.02 0,-74.82 -8.68,-124.56 -26.14,-149.11 -17.36,-24.66 -39.16,-36.94 -65.3,-36.94 -25.61,0 -46.14,10.9 -61.49,32.6 -19.15,27.62 -28.68,78.84 -28.68,153.45z"/>
   <path class="fil9" d="M4795.65 17536.19l54.61 7.62c-6.04,37.57 -21.28,66.89 -45.94,88.16 -24.66,21.27 -55.03,31.86 -90.91,31.86 -44.98,0 -81.17,-14.72 -108.48,-44.14 -27.41,-29.42 -41.06,-71.54 -41.06,-126.36 0,-35.56 5.93,-66.57 17.67,-93.24 11.75,-26.57 29.64,-46.57 53.77,-59.8 24.02,-13.33 50.16,-20 78.53,-20 35.66,0 64.98,9 87.63,27.09 22.75,18.1 37.36,43.82 43.71,77.05l-53.98 8.25c-5.19,-22.11 -14.29,-38.73 -27.52,-49.95 -13.12,-11.11 -28.99,-16.72 -47.62,-16.72 -28.15,0 -51.01,10.05 -68.69,30.16 -17.57,20.22 -26.35,51.97 -26.35,95.57 0,44.24 8.47,76.31 25.4,96.31 17.04,20 39.16,30.05 66.36,30.05 22.01,0 40.32,-6.66 54.93,-20.1 14.71,-13.34 24.02,-33.98 27.94,-61.81z"/>
   <path id="1" class="fil9" d="M5059.06 17432.47c0,-53.65 5.5,-97.05 16.51,-129.85 11.11,-32.92 27.52,-58.21 49.32,-75.89 21.69,-17.67 49.11,-26.46 82.13,-26.46 24.34,0 45.72,4.87 64.24,14.72 18.41,9.84 33.65,24.02 45.5,42.54 11.86,18.42 21.17,40.96 27.94,67.52 6.88,26.57 10.27,62.44 10.27,107.42 0,53.34 -5.5,96.52 -16.4,129.33 -10.9,32.92 -27.31,58.21 -49.11,75.99 -21.7,17.78 -49.21,26.67 -82.44,26.67 -43.71,0 -78.11,-15.56 -103.09,-46.78 -29.95,-38.1 -44.87,-99.8 -44.87,-185.21zm57.15 0.21c0,74.83 8.68,124.57 26.14,149.12 17.46,24.66 39.05,36.94 64.67,36.94 25.61,0 47.2,-12.38 64.66,-37.04 17.46,-24.77 26.14,-74.4 26.14,-149.02 0,-74.82 -8.68,-124.56 -26.14,-149.11 -17.36,-24.66 -39.16,-36.94 -65.3,-36.94 -25.61,0 -46.14,10.9 -61.49,32.6 -19.15,27.62 -28.68,78.84 -28.68,153.45z"/>
   <path id="2" class="fil9" d="M5603.89 17656.84l0 -329.57 50.17 0 0 46.57c10.26,-16.09 24.02,-29.1 41.16,-38.84 17.15,-9.84 36.62,-14.71 58.53,-14.71 24.34,0 44.34,5.08 59.9,15.13 15.56,10.16 26.57,24.24 32.92,42.44 26.24,-38.41 60.22,-57.57 102.13,-57.57 32.8,0 58.1,9 75.67,27.09 17.67,18.1 26.56,45.93 26.56,83.51l0 225.95 -55.88 0 0 -207.43c0,-22.23 -1.9,-38.32 -5.5,-48.16 -3.6,-9.84 -10.16,-17.67 -19.79,-23.7 -9.53,-6.04 -20.75,-9 -33.55,-9 -23.29,0 -42.55,7.73 -57.89,23.07 -15.35,15.45 -22.97,40.11 -22.97,73.98l0 191.24 -55.88 0 0 -213.89c0,-24.76 -4.55,-43.39 -13.65,-55.77 -9.1,-12.39 -24.03,-18.63 -44.66,-18.63 -15.67,0 -30.17,4.13 -43.5,12.38 -13.34,8.26 -22.97,20.32 -29,36.3 -5.93,15.88 -8.89,38.84 -8.89,68.79l0 170.82 -55.88 0z"/>
   <path id="3" class="fil9" d="M6294.03 17432.47c0,-53.65 5.5,-97.05 16.51,-129.85 11.11,-32.92 27.52,-58.21 49.32,-75.89 21.69,-17.67 49.11,-26.46 82.13,-26.46 24.34,0 45.72,4.87 64.24,14.72 18.41,9.84 33.65,24.02 45.5,42.54 11.86,18.42 21.17,40.96 27.94,67.52 6.88,26.57 10.27,62.44 10.27,107.42 0,53.34 -5.5,96.52 -16.4,129.33 -10.9,32.92 -27.31,58.21 -49.11,75.99 -21.7,17.78 -49.21,26.67 -82.44,26.67 -43.71,0 -78.11,-15.56 -103.09,-46.78 -29.95,-38.1 -44.87,-99.8 -44.87,-185.21zm57.15 0.21c0,74.83 8.68,124.57 26.14,149.12 17.46,24.66 39.05,36.94 64.67,36.94 25.61,0 47.2,-12.38 64.66,-37.04 17.46,-24.77 26.14,-74.4 26.14,-149.02 0,-74.82 -8.68,-124.56 -26.14,-149.11 -17.36,-24.66 -39.16,-36.94 -65.3,-36.94 -25.61,0 -46.14,10.9 -61.49,32.6 -19.15,27.62 -28.68,78.84 -28.68,153.45z"/>
   <path id="4" class="fil9" d="M7012.74 17783.52l-6.35 -51.64c12.28,3.28 22.86,4.97 31.96,4.97 12.49,0 22.44,-2.12 29.85,-6.24 7.51,-4.13 13.65,-9.95 18.41,-17.36 3.49,-5.61 9.21,-19.47 17.04,-41.7 1.06,-3.07 2.65,-7.62 4.98,-13.65l-125.1 -330.63 59.69 0 68.79 190.29c9,24.03 16.94,49.43 24.03,76.1 6.45,-25.09 14.07,-49.85 22.96,-74.19l70.28 -192.2 55.77 0 -124.57 335.29c-13.44,36.08 -23.91,60.85 -31.43,74.5 -9.95,18.31 -21.38,31.75 -34.18,40.32 -12.91,8.58 -28.26,12.81 -46.04,12.81 -10.8,0 -22.86,-2.22 -36.09,-6.67z"/>
   <path id="5" class="fil9" d="M7493.96 17432.47c0,-53.65 5.5,-97.05 16.51,-129.85 11.11,-32.92 27.52,-58.21 49.32,-75.89 21.69,-17.67 49.11,-26.46 82.13,-26.46 24.34,0 45.72,4.87 64.24,14.72 18.41,9.84 33.65,24.02 45.5,42.54 11.86,18.42 21.17,40.96 27.94,67.52 6.88,26.57 10.27,62.44 10.27,107.42 0,53.34 -5.5,96.52 -16.4,129.33 -10.9,32.92 -27.31,58.21 -49.11,75.99 -21.7,17.78 -49.21,26.67 -82.44,26.67 -43.71,0 -78.11,-15.56 -103.09,-46.78 -29.95,-38.1 -44.87,-99.8 -44.87,-185.21zm57.15 0.21c0,74.83 8.68,124.57 26.14,149.12 17.46,24.66 39.05,36.94 64.67,36.94 25.61,0 47.2,-12.38 64.66,-37.04 17.46,-24.77 26.14,-74.4 26.14,-149.02 0,-74.82 -8.68,-124.56 -26.14,-149.11 -17.36,-24.66 -39.16,-36.94 -65.3,-36.94 -25.61,0 -46.14,10.9 -61.49,32.6 -19.15,27.62 -28.68,78.84 -28.68,153.45z"/>
   <polygon id="6" class="fil9" points="8039,17656.84 8039,17202.18 8094.88,17202.18 8094.88,17461.15 8226.96,17327.27 8299.14,17327.27 8173.41,17449.72 8311.84,17656.84 8243.05,17656.84 8133.62,17488.46 8094.88,17526.14 8094.88,17656.84 "/>
   <path id="7" class="fil9" d="M8517.47 17536.19l55.88 -7.62c6.46,31.75 17.25,54.61 32.6,68.58 15.34,13.97 34.18,20.95 56.51,20.95 26.46,0 48.79,-9.1 66.78,-27.3 17.99,-18.2 26.99,-40.75 26.99,-67.63 0,-25.61 -8.36,-46.78 -25.19,-63.5 -16.72,-16.61 -37.99,-24.97 -63.92,-24.97 -10.58,0 -23.71,2.11 -39.48,6.24l6.25 -48.9c3.7,0.43 6.77,0.64 8.99,0.64 23.92,0 45.3,-6.24 64.46,-18.63 19.05,-12.38 28.57,-31.43 28.57,-57.15 0,-20.42 -6.98,-37.36 -20.85,-50.8 -13.86,-13.44 -31.75,-20.11 -53.66,-20.11 -21.8,0 -39.9,6.88 -54.39,20.64 -14.5,13.76 -23.82,34.4 -27.94,61.91l-55.88 -10.16c6.87,-37.46 22.33,-66.56 46.56,-87.2 24.13,-20.64 54.29,-30.91 90.28,-30.91 24.76,0 47.62,5.3 68.47,15.99 20.96,10.58 36.94,25.08 47.94,43.39 11.12,18.41 16.62,37.89 16.62,58.52 0,19.58 -5.29,37.36 -15.77,53.45 -10.58,16.09 -26.25,28.89 -46.88,38.42 26.88,6.13 47.73,19.05 62.65,38.63 14.82,19.47 22.23,44.02 22.23,73.34 0,39.69 -14.5,73.45 -43.4,101.07 -28.99,27.62 -65.61,41.38 -109.85,41.38 -39.9,0 -73.03,-11.96 -99.38,-35.77 -26.46,-23.81 -41.49,-54.61 -45.19,-92.5z"/>
   <path id="8" class="fil9" d="M8870.64 17432.47c0,-53.65 5.5,-97.05 16.51,-129.85 11.11,-32.92 27.52,-58.21 49.32,-75.89 21.69,-17.67 49.11,-26.46 82.13,-26.46 24.34,0 45.72,4.87 64.24,14.72 18.41,9.84 33.65,24.02 45.5,42.54 11.86,18.42 21.17,40.96 27.94,67.52 6.88,26.57 10.27,62.44 10.27,107.42 0,53.34 -5.5,96.52 -16.4,129.33 -10.9,32.92 -27.31,58.21 -49.11,75.99 -21.7,17.78 -49.21,26.67 -82.44,26.67 -43.71,0 -78.11,-15.56 -103.09,-46.78 -29.95,-38.1 -44.87,-99.8 -44.87,-185.21zm57.15 0.21c0,74.83 8.68,124.57 26.14,149.12 17.46,24.66 39.05,36.94 64.67,36.94 25.61,0 47.2,-12.38 64.66,-37.04 17.46,-24.77 26.14,-74.4 26.14,-149.02 0,-74.82 -8.68,-124.56 -26.14,-149.11 -17.36,-24.66 -39.16,-36.94 -65.3,-36.94 -25.61,0 -46.14,10.9 -61.49,32.6 -19.15,27.62 -28.68,78.84 -28.68,153.45z"/>
   <path class="fil8" d="M4795.65 20499.52l54.61 7.62c-6.04,37.57 -21.28,66.89 -45.94,88.16 -24.66,21.27 -55.03,31.86 -90.91,31.86 -44.98,0 -81.17,-14.72 -108.48,-44.14 -27.41,-29.42 -41.06,-71.54 -41.06,-126.36 0,-35.56 5.93,-66.57 17.67,-93.24 11.75,-26.57 29.64,-46.57 53.77,-59.8 24.02,-13.33 50.16,-20 78.53,-20 35.66,0 64.98,9 87.63,27.09 22.75,18.1 37.36,43.82 43.71,77.05l-53.98 8.25c-5.19,-22.11 -14.29,-38.73 -27.52,-49.95 -13.12,-11.11 -28.99,-16.72 -47.62,-16.72 -28.15,0 -51.01,10.05 -68.69,30.16 -17.57,20.22 -26.35,51.97 -26.35,95.57 0,44.24 8.47,76.31 25.4,96.31 17.04,20 39.16,30.05 66.36,30.05 22.01,0 40.32,-6.66 54.93,-20.1 14.71,-13.34 24.02,-33.98 27.94,-61.81z"/>
   <path id="1" class="fil8" d="M5059.06 20395.8c0,-53.65 5.5,-97.05 16.51,-129.85 11.11,-32.92 27.52,-58.21 49.32,-75.89 21.69,-17.67 49.11,-26.46 82.13,-26.46 24.34,0 45.72,4.87 64.24,14.72 18.41,9.84 33.65,24.02 45.5,42.54 11.86,18.42 21.17,40.96 27.94,67.52 6.88,26.57 10.27,62.44 10.27,107.42 0,53.34 -5.5,96.52 -16.4,129.33 -10.9,32.92 -27.31,58.21 -49.11,75.99 -21.7,17.78 -49.21,26.67 -82.44,26.67 -43.71,0 -78.11,-15.56 -103.09,-46.78 -29.95,-38.1 -44.87,-99.8 -44.87,-185.21zm57.15 0.21c0,74.83 8.68,124.57 26.14,149.12 17.46,24.66 39.05,36.94 64.67,36.94 25.61,0 47.2,-12.38 64.66,-37.04 17.46,-24.77 26.14,-74.4 26.14,-149.02 0,-74.82 -8.68,-124.56 -26.14,-149.11 -17.36,-24.66 -39.16,-36.94 -65.3,-36.94 -25.61,0 -46.14,10.9 -61.49,32.6 -19.15,27.62 -28.68,78.84 -28.68,153.45z"/>
   <path id="2" class="fil8" d="M5603.89 20620.17l0 -329.57 50.17 0 0 46.57c10.26,-16.09 24.02,-29.1 41.16,-38.84 17.15,-9.84 36.62,-14.71 58.53,-14.71 24.34,0 44.34,5.08 59.9,15.13 15.56,10.16 26.57,24.24 32.92,42.44 26.24,-38.41 60.22,-57.57 102.13,-57.57 32.8,0 58.1,9 75.67,27.09 17.67,18.1 26.56,45.93 26.56,83.51l0 225.95 -55.88 0 0 -207.43c0,-22.23 -1.9,-38.32 -5.5,-48.16 -3.6,-9.84 -10.16,-17.67 -19.79,-23.7 -9.53,-6.04 -20.75,-9 -33.55,-9 -23.29,0 -42.55,7.73 -57.89,23.07 -15.35,15.45 -22.97,40.11 -22.97,73.98l0 191.24 -55.88 0 0 -213.89c0,-24.76 -4.55,-43.39 -13.65,-55.77 -9.1,-12.39 -24.03,-18.63 -44.66,-18.63 -15.67,0 -30.17,4.13 -43.5,12.38 -13.34,8.26 -22.97,20.32 -29,36.3 -5.93,15.88 -8.89,38.84 -8.89,68.79l0 170.82 -55.88 0z"/>
   <path id="3" class="fil8" d="M6294.03 20395.8c0,-53.65 5.5,-97.05 16.51,-129.85 11.11,-32.92 27.52,-58.21 49.32,-75.89 21.69,-17.67 49.11,-26.46 82.13,-26.46 24.34,0 45.72,4.87 64.24,14.72 18.41,9.84 33.65,24.02 45.5,42.54 11.86,18.42 21.17,40.96 27.94,67.52 6.88,26.57 10.27,62.44 10.27,107.42 0,53.34 -5.5,96.52 -16.4,129.33 -10.9,32.92 -27.31,58.21 -49.11,75.99 -21.7,17.78 -49.21,26.67 -82.44,26.67 -43.71,0 -78.11,-15.56 -103.09,-46.78 -29.95,-38.1 -44.87,-99.8 -44.87,-185.21zm57.15 0.21c0,74.83 8.68,124.57 26.14,149.12 17.46,24.66 39.05,36.94 64.67,36.94 25.61,0 47.2,-12.38 64.66,-37.04 17.46,-24.77 26.14,-74.4 26.14,-149.02 0,-74.82 -8.68,-124.56 -26.14,-149.11 -17.36,-24.66 -39.16,-36.94 -65.3,-36.94 -25.61,0 -46.14,10.9 -61.49,32.6 -19.15,27.62 -28.68,78.84 -28.68,153.45z"/>
   <path id="4" class="fil8" d="M7012.74 20746.85l-6.35 -51.64c12.28,3.28 22.86,4.97 31.96,4.97 12.49,0 22.44,-2.12 29.85,-6.24 7.51,-4.13 13.65,-9.95 18.41,-17.36 3.49,-5.61 9.21,-19.47 17.04,-41.7 1.06,-3.07 2.65,-7.62 4.98,-13.65l-125.1 -330.63 59.69 0 68.79 190.29c9,24.03 16.94,49.43 24.03,76.1 6.45,-25.09 14.07,-49.85 22.96,-74.19l70.28 -192.2 55.77 0 -124.57 335.29c-13.44,36.08 -23.91,60.85 -31.43,74.5 -9.95,18.31 -21.38,31.75 -34.18,40.32 -12.91,8.58 -28.26,12.81 -46.04,12.81 -10.8,0 -22.86,-2.22 -36.09,-6.67z"/>
   <path id="5" class="fil8" d="M7493.96 20395.8c0,-53.65 5.5,-97.05 16.51,-129.85 11.11,-32.92 27.52,-58.21 49.32,-75.89 21.69,-17.67 49.11,-26.46 82.13,-26.46 24.34,0 45.72,4.87 64.24,14.72 18.41,9.84 33.65,24.02 45.5,42.54 11.86,18.42 21.17,40.96 27.94,67.52 6.88,26.57 10.27,62.44 10.27,107.42 0,53.34 -5.5,96.52 -16.4,129.33 -10.9,32.92 -27.31,58.21 -49.11,75.99 -21.7,17.78 -49.21,26.67 -82.44,26.67 -43.71,0 -78.11,-15.56 -103.09,-46.78 -29.95,-38.1 -44.87,-99.8 -44.87,-185.21zm57.15 0.21c0,74.83 8.68,124.57 26.14,149.12 17.46,24.66 39.05,36.94 64.67,36.94 25.61,0 47.2,-12.38 64.66,-37.04 17.46,-24.77 26.14,-74.4 26.14,-149.02 0,-74.82 -8.68,-124.56 -26.14,-149.11 -17.36,-24.66 -39.16,-36.94 -65.3,-36.94 -25.61,0 -46.14,10.9 -61.49,32.6 -19.15,27.62 -28.68,78.84 -28.68,153.45z"/>
   <polygon id="6" class="fil8" points="8039,20620.17 8039,20165.51 8094.88,20165.51 8094.88,20424.48 8226.96,20290.6 8299.14,20290.6 8173.41,20413.05 8311.84,20620.17 8243.05,20620.17 8133.62,20451.79 8094.88,20489.47 8094.88,20620.17 "/>
   <path id="7" class="fil8" d="M8603.51 20373.68c-23.17,-8.46 -40.32,-20.63 -51.54,-36.3 -11.11,-15.77 -16.72,-34.6 -16.72,-56.51 0,-33.13 11.85,-60.86 35.56,-83.4 23.81,-22.54 55.35,-33.87 94.83,-33.87 39.58,0 71.54,11.54 95.67,34.61 24.13,23.07 36.2,51.12 36.2,84.25 0,21.06 -5.51,39.47 -16.51,55.03 -11.01,15.66 -27.73,27.73 -50.28,36.19 27.84,9.11 48.9,23.71 63.4,44.03 14.5,20.21 21.8,44.34 21.8,72.5 0,38.84 -13.76,71.43 -41.17,97.89 -27.52,26.46 -63.6,39.69 -108.37,39.69 -44.77,0 -80.86,-13.23 -108.38,-39.79 -27.41,-26.57 -41.16,-59.69 -41.16,-99.38 0,-29.53 7.51,-54.29 22.54,-74.19 15.03,-20 36.4,-33.55 64.13,-40.75zm-11.11 -94.82c0,21.59 6.88,39.16 20.53,52.81 13.76,13.65 31.75,20.53 54.08,20.53 21.7,0 39.27,-6.77 52.92,-20.32 13.65,-13.55 20.43,-30.16 20.43,-49.85 0,-20.53 -6.99,-37.78 -21.07,-51.75 -13.97,-13.97 -31.64,-20.96 -52.91,-20.96 -21.49,0 -39.16,6.88 -53.13,20.54 -13.86,13.65 -20.85,29.95 -20.85,49zm-18.41 210.18c0,15.98 3.7,31.33 11.11,46.25 7.41,14.82 18.62,26.35 33.65,34.5 14.93,8.15 31.01,12.28 48.05,12.28 26.88,0 48.9,-8.57 66.15,-25.72 17.25,-17.14 25.82,-38.94 25.82,-65.4 0,-26.88 -8.89,-49.11 -26.56,-66.68 -17.78,-17.57 -40.22,-26.35 -67.21,-26.35 -26.46,0 -48.15,8.68 -65.3,26.03 -17.14,17.36 -25.71,39.06 -25.71,65.09z"/>
   <path id="8" class="fil8" d="M8870.64 20395.8c0,-53.65 5.5,-97.05 16.51,-129.85 11.11,-32.92 27.52,-58.21 49.32,-75.89 21.69,-17.67 49.11,-26.46 82.13,-26.46 24.34,0 45.72,4.87 64.24,14.72 18.41,9.84 33.65,24.02 45.5,42.54 11.86,18.42 21.17,40.96 27.94,67.52 6.88,26.57 10.27,62.44 10.27,107.42 0,53.34 -5.5,96.52 -16.4,129.33 -10.9,32.92 -27.31,58.21 -49.11,75.99 -21.7,17.78 -49.21,26.67 -82.44,26.67 -43.71,0 -78.11,-15.56 -103.09,-46.78 -29.95,-38.1 -44.87,-99.8 -44.87,-185.21zm57.15 0.21c0,74.83 8.68,124.57 26.14,149.12 17.46,24.66 39.05,36.94 64.67,36.94 25.61,0 47.2,-12.38 64.66,-37.04 17.46,-24.77 26.14,-74.4 26.14,-149.02 0,-74.82 -8.68,-124.56 -26.14,-149.11 -17.36,-24.66 -39.16,-36.94 -65.3,-36.94 -25.61,0 -46.14,10.9 -61.49,32.6 -19.15,27.62 -28.68,78.84 -28.68,153.45z"/>
   <path class="fil8" d="M4271.57 23320.2l54.61 7.62c-6.04,37.57 -21.28,66.89 -45.94,88.16 -24.66,21.27 -55.03,31.86 -90.91,31.86 -44.98,0 -81.17,-14.72 -108.48,-44.14 -27.41,-29.42 -41.06,-71.54 -41.06,-126.36 0,-35.56 5.93,-66.57 17.67,-93.24 11.75,-26.57 29.64,-46.57 53.77,-59.8 24.02,-13.33 50.16,-20 78.53,-20 35.66,0 64.98,9 87.63,27.09 22.75,18.1 37.36,43.82 43.71,77.05l-53.98 8.25c-5.19,-22.11 -14.29,-38.73 -27.52,-49.95 -13.12,-11.11 -28.99,-16.72 -47.62,-16.72 -28.15,0 -51.01,10.05 -68.69,30.16 -17.57,20.22 -26.35,51.97 -26.35,95.57 0,44.24 8.47,76.31 25.4,96.31 17.04,20 39.16,30.05 66.36,30.05 22.01,0 40.32,-6.66 54.93,-20.1 14.71,-13.34 24.02,-33.98 27.94,-61.81z"/>
   <path id="1" class="fil8" d="M4621.02 23194.36c-23.17,-8.46 -40.32,-20.63 -51.54,-36.3 -11.11,-15.77 -16.72,-34.6 -16.72,-56.51 0,-33.13 11.85,-60.86 35.56,-83.4 23.81,-22.54 55.35,-33.87 94.83,-33.87 39.58,0 71.54,11.54 95.67,34.61 24.13,23.07 36.2,51.12 36.2,84.25 0,21.06 -5.51,39.47 -16.51,55.03 -11.01,15.66 -27.73,27.73 -50.28,36.19 27.84,9.11 48.9,23.71 63.4,44.03 14.5,20.21 21.8,44.34 21.8,72.5 0,38.84 -13.76,71.43 -41.17,97.89 -27.52,26.46 -63.6,39.69 -108.37,39.69 -44.77,0 -80.86,-13.23 -108.38,-39.79 -27.41,-26.57 -41.16,-59.69 -41.16,-99.38 0,-29.53 7.51,-54.29 22.54,-74.19 15.03,-20 36.4,-33.55 64.13,-40.75zm-11.11 -94.82c0,21.59 6.88,39.16 20.53,52.81 13.76,13.65 31.75,20.53 54.08,20.53 21.7,0 39.27,-6.77 52.92,-20.32 13.65,-13.55 20.43,-30.16 20.43,-49.85 0,-20.53 -6.99,-37.78 -21.07,-51.75 -13.97,-13.97 -31.64,-20.96 -52.91,-20.96 -21.49,0 -39.16,6.88 -53.13,20.54 -13.86,13.65 -20.85,29.95 -20.85,49zm-18.41 210.18c0,15.98 3.7,31.33 11.11,46.25 7.41,14.82 18.62,26.35 33.65,34.5 14.93,8.15 31.01,12.28 48.05,12.28 26.88,0 48.9,-8.57 66.15,-25.72 17.25,-17.14 25.82,-38.94 25.82,-65.4 0,-26.88 -8.89,-49.11 -26.56,-66.68 -17.78,-17.57 -40.22,-26.35 -67.21,-26.35 -26.46,0 -48.15,8.68 -65.3,26.03 -17.14,17.36 -25.71,39.06 -25.71,65.09z"/>
   <path id="2" class="fil8" d="M5079.81 23440.85l0 -329.57 50.17 0 0 46.57c10.26,-16.09 24.02,-29.1 41.16,-38.84 17.15,-9.84 36.62,-14.71 58.53,-14.71 24.34,0 44.34,5.08 59.9,15.13 15.56,10.16 26.57,24.24 32.92,42.44 26.24,-38.41 60.22,-57.57 102.13,-57.57 32.8,0 58.1,9 75.67,27.09 17.67,18.1 26.56,45.93 26.56,83.51l0 225.95 -55.88 0 0 -207.43c0,-22.23 -1.9,-38.32 -5.5,-48.16 -3.6,-9.84 -10.16,-17.67 -19.79,-23.7 -9.53,-6.04 -20.75,-9 -33.55,-9 -23.29,0 -42.55,7.73 -57.89,23.07 -15.35,15.45 -22.97,40.11 -22.97,73.98l0 191.24 -55.88 0 0 -213.89c0,-24.76 -4.55,-43.39 -13.65,-55.77 -9.1,-12.39 -24.03,-18.63 -44.66,-18.63 -15.67,0 -30.17,4.13 -43.5,12.38 -13.34,8.26 -22.97,20.32 -29,36.3 -5.93,15.88 -8.89,38.84 -8.89,68.79l0 170.82 -55.88 0z"/>
   <path id="3" class="fil8" d="M5979.5 23440.85l-55.88 0 0 -355.81c-13.44,12.91 -31.11,25.72 -52.92,38.52 -21.8,12.81 -41.48,22.44 -58.84,28.79l0 -53.98c31.22,-14.6 58.53,-32.38 81.92,-53.34 23.38,-20.85 40,-41.06 49.74,-60.75l35.98 0 0 456.57z"/>
   <path id="4" class="fil8" d="M6123.12 23216.48c0,-53.65 5.5,-97.05 16.51,-129.85 11.11,-32.92 27.52,-58.21 49.32,-75.89 21.69,-17.67 49.11,-26.46 82.13,-26.46 24.34,0 45.72,4.87 64.24,14.72 18.41,9.84 33.65,24.02 45.5,42.54 11.86,18.42 21.17,40.96 27.94,67.52 6.88,26.57 10.27,62.44 10.27,107.42 0,53.34 -5.5,96.52 -16.4,129.33 -10.9,32.92 -27.31,58.21 -49.11,75.99 -21.7,17.78 -49.21,26.67 -82.44,26.67 -43.71,0 -78.11,-15.56 -103.09,-46.78 -29.95,-38.1 -44.87,-99.8 -44.87,-185.21zm57.15 0.21c0,74.83 8.68,124.57 26.14,149.12 17.46,24.66 39.05,36.94 64.67,36.94 25.61,0 47.2,-12.38 64.66,-37.04 17.46,-24.77 26.14,-74.4 26.14,-149.02 0,-74.82 -8.68,-124.56 -26.14,-149.11 -17.36,-24.66 -39.16,-36.94 -65.3,-36.94 -25.61,0 -46.14,10.9 -61.49,32.6 -19.15,27.62 -28.68,78.84 -28.68,153.45z"/>
   <path id="5" class="fil8" d="M6476.29 23216.48c0,-53.65 5.5,-97.05 16.51,-129.85 11.11,-32.92 27.52,-58.21 49.32,-75.89 21.69,-17.67 49.11,-26.46 82.13,-26.46 24.34,0 45.72,4.87 64.24,14.72 18.41,9.84 33.65,24.02 45.5,42.54 11.86,18.42 21.17,40.96 27.94,67.52 6.88,26.57 10.27,62.44 10.27,107.42 0,53.34 -5.5,96.52 -16.4,129.33 -10.9,32.92 -27.31,58.21 -49.11,75.99 -21.7,17.78 -49.21,26.67 -82.44,26.67 -43.71,0 -78.11,-15.56 -103.09,-46.78 -29.95,-38.1 -44.87,-99.8 -44.87,-185.21zm57.15 0.21c0,74.83 8.68,124.57 26.14,149.12 17.46,24.66 39.05,36.94 64.67,36.94 25.61,0 47.2,-12.38 64.66,-37.04 17.46,-24.77 26.14,-74.4 26.14,-149.02 0,-74.82 -8.68,-124.56 -26.14,-149.11 -17.36,-24.66 -39.16,-36.94 -65.3,-36.94 -25.61,0 -46.14,10.9 -61.49,32.6 -19.15,27.62 -28.68,78.84 -28.68,153.45z"/>
   <path id="6" class="fil8" d="M7018.58 23567.53l-6.35 -51.64c12.28,3.28 22.86,4.97 31.96,4.97 12.49,0 22.44,-2.12 29.85,-6.24 7.51,-4.13 13.65,-9.95 18.41,-17.36 3.49,-5.61 9.21,-19.47 17.04,-41.7 1.06,-3.07 2.65,-7.62 4.98,-13.65l-125.1 -330.63 59.69 0 68.79 190.29c9,24.03 16.94,49.43 24.03,76.1 6.45,-25.09 14.07,-49.85 22.96,-74.19l70.28 -192.2 55.77 0 -124.57 335.29c-13.44,36.08 -23.91,60.85 -31.43,74.5 -9.95,18.31 -21.38,31.75 -34.18,40.32 -12.91,8.58 -28.26,12.81 -46.04,12.81 -10.8,0 -22.86,-2.22 -36.09,-6.67z"/>
   <polygon id="7" class="fil8" points="8044.84,23440.85 8044.84,22986.19 8100.72,22986.19 8100.72,23245.16 8232.8,23111.28 8304.98,23111.28 8179.25,23233.73 8317.68,23440.85 8248.89,23440.85 8139.46,23272.47 8100.72,23310.15 8100.72,23440.85 "/>
   <path id="8" class="fil8" d="M7790 23097.31l-55.25 4.45c-4.97,-21.91 -12.06,-37.89 -21.27,-47.84 -15.14,-15.98 -33.87,-23.92 -56.09,-23.92 -17.89,0 -33.76,4.98 -47.42,14.93 -17.57,12.8 -31.32,31.43 -41.59,55.98 -10.16,24.66 -15.45,59.69 -15.87,105.1 13.44,-20.43 29.95,-35.67 49.42,-45.51 19.47,-9.95 39.79,-14.93 61.17,-14.93 37.25,0 69,13.76 95.25,41.17 26.14,27.41 39.27,62.76 39.27,106.26 0,28.58 -6.14,55.03 -18.42,79.59 -12.38,24.55 -29.21,43.28 -50.8,56.3 -21.48,13.02 -45.93,19.58 -73.24,19.58 -46.46,0 -84.45,-17.15 -113.87,-51.33 -29.32,-34.18 -44.03,-90.59 -44.03,-169.12 0,-87.84 16.3,-151.77 48.79,-191.67 28.36,-34.71 66.57,-52.07 114.72,-52.07 35.77,0 65.2,10.06 88.06,30.06 22.86,20 36.61,47.63 41.17,82.97zm-228.6 196.22c0,19.26 4.12,37.68 12.27,55.24 8.15,17.57 19.58,30.91 34.08,40.12 14.61,9.2 30.06,13.86 46.46,13.86 23.81,0 44.13,-9.53 60.96,-28.58 16.83,-19.05 25.3,-44.87 25.3,-77.57 0,-31.43 -8.37,-56.2 -24.98,-74.3 -16.62,-18.09 -37.78,-27.2 -63.5,-27.2 -25.19,0 -46.67,9.11 -64.24,27.2 -17.57,18.1 -26.35,41.81 -26.35,71.23z"/>
   <path id="9" class="fil8" d="M8732.86 23440.85l-55.88 0 0 -355.81c-13.44,12.91 -31.11,25.72 -52.92,38.52 -21.8,12.81 -41.48,22.44 -58.84,28.79l0 -53.98c31.22,-14.6 58.53,-32.38 81.92,-53.34 23.38,-20.85 40,-41.06 49.74,-60.75l35.98 0 0 456.57z"/>
   <path id="10" class="fil8" d="M8879.66 23045.24l0 -53.34 294 0 0 43.18c-28.89,30.8 -57.68,71.76 -86.04,122.88 -28.47,51.11 -50.38,103.71 -65.94,157.79 -11.11,38 -18.31,79.8 -21.37,125.1l-57.15 0c0.63,-35.77 7.62,-79.06 21.06,-129.75 13.44,-50.8 32.59,-99.7 57.68,-146.79 25.08,-47.1 51.75,-86.79 80.01,-119.07l-222.25 0z"/>
   <rect class="fil10 str0" x="-36.24" y="-2.84" width="13264.45" height="26811.13"/>
  </g>
 </g>
</svg>
