<?xml version="1.0" encoding="UTF-8"?>
<!DOCTYPE svg PUBLIC "-//W3C//DTD SVG 1.1//EN" "http://www.w3.org/Graphics/SVG/1.1/DTD/svg11.dtd">
<!-- Creator: CorelDRAW 2020 (64-Bit) -->
<svg xmlns="http://www.w3.org/2000/svg" xml:space="preserve" width="9.639mm" height="8.607mm" version="1.1" style="shape-rendering:geometricPrecision; text-rendering:geometricPrecision; image-rendering:optimizeQuality; fill-rule:evenodd; clip-rule:evenodd"
viewBox="0 0 963.9 860.7"
 xmlns:xlink="http://www.w3.org/1999/xlink"
 xmlns:xodm="http://www.corel.com/coreldraw/odm/2003">
 <defs>
  <style type="text/css">
   <![CDATA[
    .str0 {stroke:#5B5B5B;stroke-width:52.92;stroke-miterlimit:22.9256}
    .str1 {stroke:#5B5B5B;stroke-width:20;stroke-miterlimit:22.9256}
    .fil1 {fill:none}
    .fil0 {fill:#FEFEFE;fill-rule:nonzero}
    .fil2 {fill:#5B5B5B;fill-rule:nonzero}
   ]]>
  </style>
 </defs>
 <g id="Слой_x0020_1">
  <metadata id="CorelCorpID_0Corel-Layer"/>
  <g id="_499462880">
   <path class="fil0 str0" d="M694.01 834.19l-425.41 0c-14.55,0 -26.97,-8.18 -32.72,-21.53l-205.43 -476.61c-4.89,-11.34 -3.84,-23.36 2.96,-33.68 6.78,-10.31 17.4,-16.04 29.75,-16.04l836.28 0c12.36,0 22.97,5.73 29.76,16.04 6.79,10.32 7.85,22.34 2.96,33.68l-205.43 476.61c-5.76,13.35 -18.18,21.53 -32.72,21.53z"/>
   <path class="fil1 str0" d="M666.73 261.5l0 -53.7c0,-98.11 -80.28,-178.39 -178.39,-178.39l-0.01 0c-98.11,0 -178.39,80.28 -178.39,178.39l0 53.7"/>
   <path class="fil2 str1" d="M427.35 438.59l0 121.67 -53.95 0 107.9 121.67 107.9 -121.67 -53.94 0 0 -121.67 -107.91 0zm0 60.83m-26.98 60.84m26.98 60.83m107.9 0m26.98 -60.83m-26.97 -60.84m-53.96 -60.83"/>
  </g>
 </g>
</svg>
