<?xml version="1.0" encoding="UTF-8"?>
<!DOCTYPE svg PUBLIC "-//W3C//DTD SVG 1.1//EN" "http://www.w3.org/Graphics/SVG/1.1/DTD/svg11.dtd">
<!-- Creator: CorelDRAW 2020 (64-Bit) -->
<svg xmlns="http://www.w3.org/2000/svg" xml:space="preserve" width="13.511mm" height="14.049mm" version="1.1" style="shape-rendering:geometricPrecision; text-rendering:geometricPrecision; image-rendering:optimizeQuality; fill-rule:evenodd; clip-rule:evenodd"
viewBox="0 0 1351.1 1404.9"
 xmlns:xlink="http://www.w3.org/1999/xlink"
 xmlns:xodm="http://www.corel.com/coreldraw/odm/2003">
 <defs>
  <style type="text/css">
   <![CDATA[
    .fil0 {fill:#D21D7E;fill-rule:nonzero}
   ]]>
  </style>
 </defs>
 <g id="Слой_x0020_1">
  <metadata id="CorelCorpID_0Corel-Layer"/>
  <path class="fil0" d="M890.44 117.07c0,36.61 -67,85.62 -200.99,147.73 0,-36.61 10.78,-77.46 31.7,-122.89 24.83,-53.6 53.27,-80.4 84.97,-80.4 14.71,0 32.03,5.56 51.97,16.35 21.57,12.74 32.35,25.81 32.35,39.21zm366.69 213.09l-421.59 0c44.77,-10.79 87.59,-33.34 128.44,-67.32 9.47,-7.52 32.02,-31.7 66.99,-71.91 35.3,-40.52 56.54,-66.02 63.41,-77.13l-61.12 -22.88c-38.57,89.56 -71.89,144.79 -100,165.38 -70.92,52.28 -148.7,77.12 -233.03,73.86l-0.98 0c40.2,-10.13 88.24,-36.28 144.78,-78.44 65.04,-47.06 97.4,-86.93 97.4,-119.29 0,-32.68 -14.06,-58.82 -41.84,-78.44 -24.83,-17.32 -54.25,-25.81 -87.91,-25.81 -46.41,0 -83.34,23.52 -110.8,70.91 -21.57,38.24 -33.66,83.34 -36.27,134.98 -12.1,-49.02 -31.38,-91.83 -58.5,-128.1 -33.67,-46.75 -71.91,-69.95 -114.06,-69.95 -66.35,0 -99.68,27.13 -99.68,81.38 0,31.38 37.58,69.61 112.42,115.04 50.99,30.4 102.3,61.11 153.28,91.83 -68.96,-19.28 -170.92,-50.65 -305.57,-94.77 -44.12,-16.67 -83.02,-52.95 -116.03,-109.16l-46.08 70.92c62.1,46.74 137.27,79.42 226.16,98.04 81.7,13.73 163.41,27.46 244.46,40.86l-543.17 0 72.55 -56.87 75.17 0c-25.49,-16.33 -64.38,-40.52 -116.34,-71.9l70.92 -132.03c30.72,33.98 61.11,67.65 91.18,101.63 34.64,33.02 74.52,53.61 119.94,61.12 -45.42,-30.72 -68.31,-68.96 -68.31,-115.04 0,-35.29 13.08,-62.74 39.55,-82.68 22.88,-18.64 52.62,-27.79 89.22,-27.79 75.17,0 130.73,55.24 167.33,165.7 26.14,-115.69 77.14,-173.54 152.95,-173.54 42.16,0 78.44,11.45 109.16,34.32 33.01,25.16 49.68,57.84 49.68,98.69 0,51.98 -46.74,100.01 -140.54,144.79 56.22,-6.54 98.05,-32.36 124.85,-77.78 3.27,-5.88 22.55,-53.6 57.84,-143.15l116.68 50.66 -147.07 168.64 201.98 0.32 72.55 54.91zm-618.99 -66.34c-34.65,-14.71 -70.27,-37.59 -107.2,-68.64 -45.43,-37.59 -67.98,-69.93 -67.98,-96.41 0,-26.14 15.04,-39.22 45.1,-39.22 31.05,0 60.14,26.8 86.93,80.07 18.96,37.59 33.34,79.1 43.15,124.2zm711.16 1142.88l-617.69 0 -0.66 -985.03c-5.88,-16.67 -12.42,-35.3 -18.95,-56.21l588.27 0 49.03 41.17 0 1000.07zm-676.52 0l-674.55 0 0 -984.38 72.55 -56.86 596.11 0 5.89 49.01 0 992.23z"/>
 </g>
</svg>
